<svg width="140" height="129" viewBox="0 0 140 129" fill="none" xmlns="http://www.w3.org/2000/svg">
<g clip-path="url(#clip0_52_4218)">
<path d="M21.885 79.889C22.8757 78.3605 24.3594 77.7948 26.0943 77.7348C28.5387 77.6493 30.7666 78.4505 32.9415 79.4503C33.4276 79.672 33.9069 79.9052 34.3907 80.1337C35.3076 80.5978 36.2707 80.9881 36.9872 81.7685C37.2061 81.9162 37.4226 82.064 37.6415 82.2118C37.9433 82.3041 38.206 82.4565 38.3649 82.7451C38.4341 82.7959 38.5055 82.8491 38.5746 82.8998C39.0169 82.983 39.245 83.3432 39.5215 83.6387C43.0373 86.6842 46.2259 90.0229 48.7095 93.9873C50.3661 96.6311 51.7576 99.3902 52.3129 102.5C52.3797 102.872 52.382 103.258 52.4142 103.636C52.0963 103.967 51.7115 103.879 51.3383 103.791C46.1937 102.583 41.1112 101.191 36.3997 98.7114C32.7503 96.7927 29.3658 94.5276 26.7647 91.2466C26.638 91.0227 26.5251 90.7872 26.3201 90.6186C25.986 90.4454 25.9998 89.9259 25.5598 89.8543C25.4192 89.7828 25.3271 89.6673 25.2556 89.5311C24.8686 88.7068 24.364 87.9518 23.8756 87.1875C23.1015 85.6059 22.4241 83.992 22.0186 82.2695C21.832 81.4752 21.7283 80.6971 21.8827 79.8936L21.885 79.889Z" fill="#F47F22"/>
<path d="M48.1727 110.134C43.346 112.078 38.517 114.02 33.6903 115.966C33.4069 116.079 33.1327 116.208 32.8516 116.331C32.3125 116.603 32.0015 116.185 31.6628 115.915C29.2829 114.01 27.2739 111.727 25.334 109.404C22.8388 106.419 20.7676 103.142 19.2171 99.5518C19.0051 99.06 18.7056 98.5936 18.8622 98.0187C19.0996 97.3699 20.0004 97.6008 20.2538 96.9681C20.3183 96.8873 20.3921 96.8157 20.4704 96.7488C20.6409 96.5964 20.9289 96.4394 20.8759 96.2223C20.5925 95.024 21.4311 95.2965 22.0532 95.2734C22.3803 95.1117 22.4725 94.7608 22.6706 94.4976C23.0346 93.8903 23.0185 93.0198 23.8756 92.7543C24.2995 92.7405 24.4723 93.0753 24.6428 93.3569C27.449 97.9748 31.0408 101.856 35.4551 104.973C35.5173 105.017 35.568 105.077 35.6209 105.132C35.6855 105.22 35.7177 105.317 35.72 105.426C35.5518 105.867 35.1095 106.088 34.8745 106.474C34.6441 106.728 34.3907 106.959 34.158 107.213C34.0612 107.326 33.9621 107.437 33.8654 107.552C33.6603 107.852 33.317 108.007 33.1051 108.303C32.5913 109.048 31.8379 109.563 31.2481 110.238C30.815 110.729 30.3703 111.21 29.898 111.662C29.9948 112.355 30.209 112.54 30.6238 112.286C30.6053 111.549 31.4969 111.704 31.6905 111.175C31.7803 110.487 32.6189 110.743 32.8516 110.24C32.8286 110.145 32.8079 110.053 32.7825 109.96C32.7065 109.559 32.7825 109.254 33.2756 109.353C33.6096 109.42 33.9253 109.526 34.2271 109.282C34.4966 109.072 34.7247 108.818 34.9643 108.575C35.0634 108.469 35.174 108.372 35.2892 108.282C35.5818 108.037 35.9228 107.834 35.9734 107.4C35.8928 106.806 36.0057 106.31 36.6162 106.049C36.7314 106.021 36.8489 106.019 36.9664 106.035C38.5884 106.73 40.033 107.769 41.6779 108.427C43.5073 109.159 45.3642 109.727 47.3456 109.817C47.6497 109.831 47.9653 109.852 48.1704 110.136L48.1727 110.134Z" fill="#FEC40A"/>
<path d="M48.1727 110.134C43.8989 110.196 40.3048 108.307 36.7982 106.162C36.7176 106.086 36.683 105.994 36.6899 105.883C36.7591 105.592 36.8766 105.146 37.1576 105.227C38.0608 105.488 37.4963 104.68 37.752 104.493C38.0193 104.357 38.3695 104.627 38.5953 104.336C38.7566 104.128 39.0607 103.996 38.7704 103.599C38.4547 103.168 38.3741 103.456 38.1575 103.648C37.9087 103.865 37.5631 103.962 37.3443 104.227C36.7982 104.627 36.4642 105.38 35.6163 105.285C32.6212 103.567 30.2943 101.092 28.0318 98.5497C26.4536 96.7765 25.2049 94.7584 23.9055 92.7797C23.8686 92.7474 23.8295 92.7174 23.7926 92.6873C23.7212 92.5534 23.7074 92.4103 23.7396 92.2625C23.7719 92.1701 23.8295 92.0962 23.9055 92.0362C24.1244 91.9739 24.3709 91.9785 24.5552 91.8076C24.963 91.489 25.5966 91.6068 25.8777 90.9672C26.0228 90.637 26.5343 90.7478 26.8799 90.9487C29.4741 94.142 32.7433 96.474 36.3605 98.3419C40.5697 100.517 45.0048 102.055 49.6518 102.994C50.578 103.181 51.4465 103.643 52.4211 103.629C52.8289 107.217 51.6355 109.044 48.175 110.131L48.1727 110.134Z" fill="#E66A20"/>
<path d="M54.9877 34.8534C53.8427 32.0573 52.6953 29.2635 51.5595 26.4651C51.359 25.9733 51.2185 25.4584 51.0526 24.9527C50.6794 23.4589 50.2071 21.9927 49.8292 20.5011C49.5205 18.5893 49.3592 16.6983 49.9398 14.7819C50.1241 14.1769 50.4075 13.9022 50.9167 13.7175C51.5388 13.2903 52.1447 12.8447 52.7322 12.3667C53.1169 12.0527 53.0985 11.7664 52.9879 11.3901C53.0317 10.7159 53.6238 10.3695 53.9164 9.84077C54.1583 9.40439 54.5431 9.49905 54.8956 9.75765C55.1882 9.97469 55.2204 10.3603 55.4531 10.6143C55.5499 11.2261 55.3379 11.6948 54.9439 12.1843C53.3381 14.1931 52.8243 16.4928 53.0386 19.0603C53.3681 23.0109 55.1075 26.4628 56.7295 29.9377C58.6947 34.1492 59.9227 38.5085 60.319 43.1425C60.5263 45.5623 60.5309 47.9428 60.0702 50.3233C59.7891 52.1404 59.5149 53.9575 59.015 55.7354C58.8007 56.4927 58.4897 57.0977 57.8169 57.5918C56.9299 58.2406 56.1351 59.0256 55.3817 59.8407C55.1605 60.0785 54.9854 60.5103 54.5753 60.2701C54.2228 60.0647 54.3012 59.6467 54.4164 59.3304C54.8979 58.0143 55.4093 56.7098 55.7503 55.3475C55.8056 55.1282 55.7388 54.8834 55.8886 54.6848C55.8102 53.595 56.2411 52.5814 56.4138 51.5331C57.2686 46.3519 56.9069 41.2699 55.4508 36.2457C55.4301 36.1741 55.4393 36.0933 55.4324 36.0171C55.2596 35.6385 55.1789 35.2252 54.9877 34.8534Z" fill="#FEEE6F"/>
<path d="M19.0536 97.8781C19.3646 99.9423 20.5004 101.656 21.5072 103.396C24.2627 108.153 27.8591 112.219 31.9808 115.832C32.2435 116.063 32.4762 116.317 32.854 116.331C30.9395 117.105 29.0272 117.88 27.1127 118.654C26.7417 118.839 26.3201 118.899 25.9607 119.111C25.4608 119.141 25.1359 119.7 24.583 119.568C24.5092 119.483 24.4862 119.386 24.5185 119.277C24.2397 119.106 25.2903 118.966 24.5415 118.829C24.0577 118.742 24.2627 118.028 23.7282 118.07C23.6314 118.028 23.5508 117.968 23.4817 117.89C22.4081 116.509 21.7123 114.856 20.6986 113.489C19.5835 111.986 18.7494 110.353 17.7726 108.79C17.3325 108.084 17.169 107.218 16.5446 106.61C16.2958 106.322 16.1207 105.992 16.0331 105.62C15.9917 105.2 15.7106 104.888 15.5286 104.532C15.623 104.082 16.0746 103.78 16.0423 103.276C16.7013 101.688 17.2519 100.044 18.2841 98.64C18.5513 98.2775 18.4568 97.8158 18.7172 97.4694C18.8047 97.3678 18.9084 97.347 19.0305 97.4048C19.1803 97.5548 19.1826 97.7119 19.0559 97.8758L19.0536 97.8781Z" fill="#FEEB76"/>
<path d="M24.5853 119.339C24.5853 119.415 24.583 119.492 24.5807 119.57C22.2813 120.505 19.982 121.438 17.6827 122.373C16.7473 122.918 16.1737 122.546 15.6299 121.701C14.1785 119.439 12.9044 117.09 11.8699 114.606C11.6718 114.133 11.5773 113.657 11.7064 113.151C12.7224 110.533 13.8674 107.97 15.13 105.46C15.5309 104.869 15.9156 104.851 16.2773 105.497C16.3326 105.853 16.4501 106.176 16.7289 106.421C18.6043 110.528 21.0234 114.31 23.6476 117.97H23.643C23.8987 118.467 24.6106 118.651 24.5876 119.342L24.5853 119.339Z" fill="#FEC40A"/>
<path d="M71.7532 87.0003C72.5227 86.6678 73.3222 86.8017 74.1148 86.8387C75.2529 87.0188 76.3726 87.3351 77.5384 87.2912C80.0612 87.7853 82.4549 88.6858 84.8395 89.6117C87.2264 90.5399 89.6409 91.3757 92.1061 92.0661C92.6636 92.297 93.235 92.4563 93.8455 92.454C94.4238 92.6087 95.0113 92.6895 95.6057 92.738C96.9996 92.955 98.405 92.9135 99.8058 92.9089C100.737 93.1698 100.091 93.56 99.8449 93.8347C99.3749 94.3589 98.7229 94.7399 98.6192 95.5272C98.5179 95.7419 98.3359 95.8366 98.1101 95.8666C97.6009 95.7188 97.0848 96.0513 96.5757 95.8435C95.9237 95.7535 95.2809 95.5595 94.615 95.7327C91.2651 95.4556 88.1571 94.3104 85.0699 93.082C82.0909 91.8952 79.1396 90.6369 75.9233 90.1682C74.1447 89.9096 72.426 90.0527 70.7096 90.5076C70.1797 90.6415 69.6705 90.8124 69.265 91.2049C68.7489 91.5858 68.2329 91.9668 67.7145 92.3478C67.256 92.5879 66.7468 92.3478 66.2791 92.5025C65.7677 92.3016 65.5027 91.9045 65.3967 91.3804C65.535 90.9786 65.3714 90.5422 65.5488 90.1451C66.9588 88.3095 68.9125 87.4621 71.1127 87.0603C71.4906 87.2012 71.8615 87.1204 72.1426 87.125C72.0597 87.215 71.903 87.1388 71.7486 86.9957L71.7532 87.0003Z" fill="#AF65A8"/>
<path d="M43.1892 71.122C42.3921 70.6602 42.3137 69.9537 42.4704 69.134C43.0556 66.0677 43.0049 63.0246 42.0787 60.0253C41.7516 58.9655 41.4037 57.9103 40.7287 57.0052C40.2955 56.4764 39.9591 55.89 39.6781 55.2712C39.4938 54.7332 39.1528 54.3176 38.692 53.9943C38.328 53.7588 38.093 53.4286 37.9616 53.0177C36.8995 51.5122 35.4849 50.3301 34.2593 48.9747C33.2478 47.8572 33.6602 46.3841 35.0541 46.0124C35.7153 45.8369 36.2521 46.0493 36.7152 46.5157C38.3556 48.1666 40.0283 49.7875 41.3968 51.6831C41.7885 52.2234 42.0903 52.8306 42.5787 53.3017C42.9727 53.7034 43.2699 54.1675 43.4634 54.6986C43.6846 55.3612 43.915 56.017 44.408 56.5388L44.4034 56.5318C44.514 56.8643 44.5923 57.2084 44.8388 57.4785C46.4954 61.787 46.8847 66.1624 45.5369 70.6302C44.9287 71.6276 44.0256 71.2236 43.1869 71.122H43.1892Z" fill="#02B4E0"/>
<path d="M65.2609 35.9729C67.8412 33.6825 68.1292 32.4518 66.8621 29.441C66.0972 27.6262 66.0603 25.8714 67.0856 24.1374C67.6201 23.2346 68.2606 22.7589 69.348 23.2808C69.9286 23.5601 70.8294 23.5532 71.1082 23.985C71.4146 24.4606 70.5553 24.9224 70.2834 25.4442C69.4079 27.1251 69.5231 28.7691 70.364 30.413C71.0414 31.7407 71.463 33.1191 71.1381 34.6268C71.0667 34.9616 70.9746 35.3011 70.834 35.6128C69.9585 37.5638 69.53 37.737 67.5717 36.9519C66.8298 36.6541 66.0995 36.3285 65.2585 35.9706L65.2609 35.9729Z" fill="#5EBD85"/>
<path d="M78.9622 80.1153C77.8057 80.5656 76.8426 81.2929 75.9188 82.1172C74.1632 83.6803 72.1565 84.0659 69.9401 83.1862C69.3296 82.9437 69.0485 82.609 69.1775 81.877C69.371 80.7918 69.424 79.6835 69.5461 78.4967C69.7673 78.5891 69.9078 78.626 70.0253 78.6999C72.3845 80.2007 73.9904 80.1084 76.0985 78.2774C77.6674 76.9151 79.4161 76.2709 81.5081 76.765C82.5978 77.0213 83.312 77.5085 83.054 78.7807C83.031 78.8916 83.0494 79.0116 83.0494 79.1248C83.0494 80.2746 82.5034 80.6102 81.4113 80.1315C80.598 79.8636 79.7824 79.9075 78.9645 80.1107L78.9622 80.1153Z" fill="#F05B5C"/>
<path d="M11.9183 113.117C11.7801 114.35 12.4989 115.324 12.9735 116.34C13.7983 118.102 14.7636 119.796 15.8142 121.443C16.2911 122.189 16.7611 122.655 17.6804 122.371C15.3696 123.281 13.0587 124.19 10.7479 125.1C9.77335 124.257 9.25958 123.11 8.82183 121.955C8.62139 121.429 8.34953 121.408 7.93943 121.422C7.62149 120.688 8.37026 120.39 8.5684 119.868C8.64213 119.554 8.70203 119.233 8.92551 118.979C9.35865 118.626 9.53144 118.136 9.6282 117.608C10.2687 116.104 10.953 114.622 11.6004 113.124C11.704 113.045 11.8077 113.043 11.9137 113.117H11.9183Z" fill="#FEEB75"/>
<path d="M79.3171 19.0254C82.5242 18.0302 84.1461 15.9822 84.8949 13.1676C85.0309 12.662 85.206 12.6158 85.57 12.9668C86.6183 13.9781 87.6688 14.9894 88.7379 15.9776C89.1157 16.3262 89.0742 16.6818 88.9567 17.1228C88.2356 19.8081 86.3948 21.4729 84.001 22.6435C83.6785 22.8005 83.3836 22.8813 83.0633 22.5719C81.886 21.4336 80.688 20.3184 79.3194 19.0254H79.3171Z" fill="#F15B5C"/>
<path d="M118.11 50.3141C118.433 50.7713 118.129 50.8313 117.774 50.8313C115.108 50.8175 113.473 52.1936 112.452 54.5834C111.943 55.7748 111.164 56.8461 109.835 57.3148C109.482 57.3079 109.222 57.5596 108.865 57.6057C106.605 57.8967 105.561 56.9269 105.625 54.5857C105.641 54.0038 105.973 54.117 106.314 54.1239C107.157 54.14 107.985 54.14 108.789 53.7752C109.669 53.3758 110.358 52.8309 110.715 51.9119C111.657 49.7577 112.963 48.0422 115.514 47.712C117.062 47.5111 117.235 47.5896 117.67 49.1204C117.654 49.5776 117.769 49.9863 118.11 50.3118V50.3141Z" fill="#02B5DF"/>
<path d="M124.294 3.04772C125.575 4.02671 126.626 5.25044 127.808 6.33564C128.114 6.61733 128.109 6.8921 128.015 7.25921C127.298 9.97452 125.527 11.7524 123.057 12.9253C122.573 13.1539 122.174 13.0315 121.813 12.6806C121.004 11.7178 120.059 10.8889 119.196 9.97914C118.509 9.25413 118.52 9.22642 119.518 8.79696C119.714 8.77849 119.91 8.75771 120.103 8.73924C121.449 8.06503 122.474 7.06988 123.135 5.70992C123.375 5.03802 123.614 4.36612 123.854 3.69422C124.172 3.59494 123.672 2.9392 124.294 3.04772Z" fill="#FECD4D"/>
<path d="M109.296 91.3757C110.528 90.9001 111.763 90.4267 112.996 89.9488C114.053 89.5378 114.599 90.1497 115.044 90.9693C114.956 91.3457 114.922 91.7221 115.067 92.0915C114.873 92.7842 114.314 93.0266 113.703 93.2067C113.387 93.2298 113.049 93.1813 112.844 93.5115C111.27 94.218 109.634 94.7237 107.943 95.0492C105.916 95.2362 103.925 95.7188 101.886 95.8435C101.202 95.8851 100.522 95.8781 99.8404 95.9035C99.8058 95.892 99.7413 95.8897 99.7344 95.8689C99.4579 95.0469 100.276 93.8232 101.149 93.7424C101.633 94.1026 101.778 93.6038 102.029 93.3845C102.114 93.2113 102.073 93.0104 102.144 92.835C102.416 92.5348 102.819 92.798 103.117 92.6041C103.199 92.6041 103.282 92.5995 103.365 92.5971C103.653 92.6341 103.962 92.8765 104.213 92.5163C105.616 92.2231 107.019 91.9322 108.422 91.6389C108.763 91.7151 109.054 91.6297 109.293 91.3734L109.296 91.3757Z" fill="#AF65A8"/>
<path d="M8.00149 121.438C8.21345 121.249 8.42541 121.062 8.73414 120.787C9.04516 122.456 10.1165 123.669 10.7478 125.1C7.4762 126.467 4.22767 127.899 0.852431 128.998C0.589784 128.917 0.479196 128.734 0.502235 128.467C1.63346 125.804 2.79463 123.156 3.99958 120.526C4.09174 120.328 4.1263 120.037 4.41198 120.048C4.69537 120.06 4.72762 120.339 4.78292 120.556C4.85894 120.852 4.81056 121.173 4.97644 121.447C6.08924 122.842 6.60992 122.84 8.00149 121.438Z" fill="#FDC40C"/>
<path d="M76.8473 8.78323C76.693 8.64238 76.5386 8.50385 76.3842 8.363C75.8474 7.78577 75.2023 7.34938 74.5319 6.94763L74.5434 6.95455C73.8384 6.4743 73.9029 5.80932 74.108 5.11203C74.3775 4.19076 74.783 3.32722 75.2277 2.47984C75.3613 2.29513 75.4857 2.10118 75.6308 1.92801C77.5178 -0.295491 77.9831 -0.34167 80.1857 1.45237C80.6902 1.86336 81.1787 2.29744 81.7063 2.67841C82.1049 2.96703 82.1072 3.18869 81.6948 3.43574C81.4782 3.79593 81.052 3.73359 80.7432 3.90445C80.5866 4.03375 80.4322 4.16075 80.2755 4.29005C79.7802 5.47684 78.6167 6.25956 78.3103 7.57104C78.2527 7.82271 78.1214 8.06284 78.0914 8.33068C77.9601 9.25887 77.4394 9.11571 76.8496 8.78554L76.8473 8.78323Z" fill="#01B4DE"/>
<path d="M134.436 42.4153C133.448 41.2608 132.588 40.238 131.708 39.2382C131.381 38.8665 131.39 38.5132 131.572 38.0791C132.48 35.9157 134.123 34.5973 136.298 33.8607C136.689 33.7268 136.936 33.803 137.182 34.1262C137.857 35.006 138.553 35.8695 139.247 36.733C139.528 37.084 139.698 37.4188 139.095 37.5827C136.68 38.2315 135.388 40.0071 134.436 42.4153Z" fill="#F15B5C"/>
<path d="M123.412 75.5529C123.384 73.9344 123.37 74.0152 124.741 74.2438C126.598 74.5532 128.409 74.3592 129.999 73.207C130.665 72.7245 130.992 72.7476 130.987 73.6896C130.985 74.6825 130.987 75.6753 131.183 76.6635C131.31 77.2962 131.084 77.7441 130.425 78.1389C128.55 79.2611 126.582 79.2495 124.555 78.8963C124.059 78.8108 123.622 78.5845 123.596 77.9334C123.562 77.056 123.463 76.1809 123.412 75.5506V75.5529Z" fill="#FEEE70"/>
<path d="M124.513 27.6656C121.73 26.6728 119.55 27.7511 117.401 29.432C117.106 27.915 116.846 26.5666 116.576 25.2205C116.495 24.8095 116.73 24.6086 117.014 24.3708C118.792 22.8769 120.866 22.6299 123.069 22.8931C123.555 22.9508 123.792 23.2117 123.866 23.7081C124.048 24.9573 124.271 26.2018 124.513 27.6633V27.6656Z" fill="#03B4DF"/>
<path d="M42.7883 32.3252C42.3989 31.2585 42.0534 30.171 41.3553 29.2474C41.0235 28.8087 41.2286 28.6609 41.687 28.6332C42.3644 28.5917 43.0417 28.534 43.7191 28.4832C44.2467 28.4624 44.7927 28.6656 45.3019 28.37C46.2787 28.3238 46.493 29.1481 46.8271 29.7785C47.0552 30.2079 47.1404 30.7159 47.2879 31.1892C47.2763 32.2536 47.274 33.3181 47.3178 34.3825C47.3293 35.3684 46.8916 35.8233 45.864 35.7655C45.113 35.724 44.3504 35.8025 43.597 35.8625C42.1501 35.978 42.1501 35.9872 42.7537 34.5995C42.998 33.8445 42.9311 33.0872 42.786 32.3275L42.7883 32.3252Z" fill="#F15B5C"/>
<path d="M65.8137 75.7354C63.6319 76.9268 62.2611 79.0741 60.2474 80.4595C58.7107 81.5193 57.0289 82.2073 55.1627 82.4198C54.4047 82.5075 54.0246 82.4382 54.2964 81.4569C54.5729 80.4618 54.8632 79.94 56.0543 79.6998C58.3582 79.2357 60.3995 78.1459 61.8279 76.0864C62.8762 74.5717 64.5466 73.916 66.2491 73.3918C66.6708 73.3133 67.2721 72.9993 67.4449 73.5165C67.6476 74.1284 67.3089 74.768 66.8136 75.2251C66.5371 75.4814 66.0971 75.4606 65.816 75.7331L65.8137 75.7354Z" fill="#FDED71"/>
<path d="M89.1201 56.3035C91.1798 56.539 92.8778 55.6754 94.5643 54.3501C94.8131 55.8278 95.032 57.1347 95.2555 58.4415C95.3246 58.8525 95.0712 59.0811 94.7878 59.2912C92.9769 60.6258 90.961 60.9282 88.7999 60.4641C87.982 60.2887 88.1847 59.6306 88.1709 59.0811C88.3345 58.4392 88.0096 57.8389 88.0073 57.1993C88.005 56.3196 88.2562 55.9941 89.1201 56.3035Z" fill="#F15B5C"/>
<path d="M17.6573 89.3305C18.8069 86.8045 19.9589 84.2785 21.1085 81.7549C21.2122 81.838 21.2882 81.9396 21.3366 82.0643C21.5739 83.1218 21.2859 84.2139 21.5371 85.2691C21.8573 87.361 22.6084 89.312 23.4908 91.2192C23.523 91.33 23.5346 91.4455 23.5253 91.5632C23.4885 91.7341 23.394 91.8703 23.2742 91.9927C22.7927 92.406 22.3365 92.8424 21.9426 93.3434C21.7191 93.5905 21.4887 93.8237 21.1293 93.8537C21.0164 93.8445 20.9173 93.8006 20.8298 93.7313C20.7123 93.5143 20.7745 93.3111 20.8827 93.1125C21.0578 92.75 21.2813 92.3898 20.9035 92.0158C19.5879 90.6627 19.2562 90.6674 17.8761 92.062C16.738 91.9303 17.132 91.1453 17.208 90.4942C17.3969 90.1225 17.4776 89.7092 17.655 89.3328L17.6573 89.3305Z" fill="#FCC40C"/>
<path d="M63.8692 61.6831C62.9614 64.2137 62.1896 66.4441 61.3533 68.6468C61.1552 69.1664 60.5077 69.2679 60.0562 69.5427C59.1738 70.0784 58.266 70.5771 57.3652 71.0851C57.1694 71.1959 56.939 71.406 56.7362 71.2582C56.469 71.062 56.6464 70.7711 56.7339 70.5217C57.3514 68.7877 57.9688 67.056 58.5863 65.3243C58.69 65.0334 58.7959 64.7471 59.0839 64.5739C60.5815 63.6711 62.0767 62.766 63.8692 61.6831Z" fill="#EF5B5D"/>
<path d="M117.917 35.3037C118.652 35.3314 119.325 35.6778 119.47 36.6498C119.613 37.6034 119.297 38.3654 118.288 38.5709C116.952 38.841 116.058 39.6122 115.314 40.7182C114.88 41.36 114.238 41.7756 113.337 41.3116C112.378 40.8174 112.109 40.0878 112.406 39.1227C112.968 37.2986 115.802 35.2945 117.917 35.306V35.3037Z" fill="#FDEE70"/>
<path d="M130.3 55.4281C132.701 56.3679 134.894 55.7906 136.996 54.5161C137.595 54.8648 137.203 55.4582 137.341 55.9199C137.106 56.7373 136.364 57.1368 135.841 57.714C135.424 58.1758 134.959 58.5591 135.415 59.2656C135.56 59.4895 135.546 59.7989 135.132 59.8151C135.037 59.792 134.947 59.7505 134.864 59.702C134.678 59.5842 134.512 59.4041 134.256 59.4734C133.673 59.8105 134.473 60.1661 134.24 60.5055C133.019 60.8611 131.851 60.5078 130.674 60.2492C130.206 60.1453 130.102 59.8151 130.1 59.3995C130.1 58.6791 130.088 57.9587 130.082 57.2383C130.376 56.6611 129.999 56.0031 130.3 55.4281Z" fill="#AF66A7"/>
<path d="M78.407 98.2498C78.7871 97.1438 79.1604 96.0656 79.5313 94.985C79.6811 94.544 80.0474 94.4539 80.4436 94.4124C82.2868 94.2161 83.9364 94.6871 85.3902 95.8462C85.715 96.1048 85.9477 96.3519 85.7611 96.8137C85.3971 97.7026 85.0653 98.6008 84.7105 99.4943C84.5861 99.806 84.4317 100.081 84.0631 99.7206C82.5794 98.266 80.7754 98.042 78.8286 98.3422C78.7272 98.3583 78.6143 98.2983 78.4116 98.2521L78.407 98.2498Z" fill="#04B4DE"/>
<path d="M101.071 40.6465C100.421 42.526 99.8564 44.4424 99.0892 46.2734C98.6491 47.3239 97.3635 47.4532 96.4834 48.0397C96.1839 48.229 95.8199 48.2868 95.5365 48.5107L95.5457 48.5061C95.237 48.5546 94.9398 49.058 94.6541 48.6747C94.4398 48.3884 94.6979 47.9197 94.9697 47.8134C95.9144 47.4463 94.4744 46.9707 95.0596 46.6336C95.4559 45.4814 95.8544 44.3316 96.2461 43.1771C96.3728 42.8008 96.5825 42.5191 96.9373 42.309C98.1491 41.5955 99.3472 40.8543 100.55 40.1247C101.027 39.9954 101.246 40.1247 101.071 40.6465Z" fill="#FDCE4E"/>
<path d="M28.753 36.2223C29.1009 37.0582 29.4949 37.8571 30.193 38.4759C30.7067 38.933 30.6791 39.538 30.5316 40.1498C30.3519 40.577 29.9695 40.8171 29.6538 41.1219C28.9074 41.519 28.23 41.3297 27.6402 40.8194C25.8985 39.3094 25.1405 37.3745 25.2902 35.0817C25.3386 34.3406 25.6704 33.7564 26.3984 33.4724C27.1264 33.1884 27.7416 33.357 28.2369 33.9665C28.1448 34.7793 28.3107 35.5297 28.753 36.22V36.2223Z" fill="#02B4E0"/>
<path d="M72.0712 48.5708C74.0894 49.2958 75.8358 48.8155 77.4393 47.6356C78.0199 47.2085 78.2157 47.3793 78.2687 48.0351C78.3079 48.5315 78.4392 49.0187 78.5014 49.5128C78.7525 51.51 78.6327 51.7086 76.7527 52.4544C76.5753 52.5236 76.3956 52.5906 76.209 52.6345C72.8891 53.3872 71.8823 52.4359 72.0712 48.5731V48.5708Z" fill="#04B5DE"/>
<path d="M97.389 4.62484C97.5687 2.8839 98.4696 1.54703 99.7828 0.480303C100.642 -0.216994 101.644 -0.131563 102.255 0.579587C102.875 1.30228 102.829 2.29051 102.025 3.02936C101.253 3.73821 100.861 4.61329 100.617 5.58997C100.343 5.82779 100.34 5.90167 100.58 6.46044C100.389 7.36092 99.716 7.66108 98.9211 7.65184C98.1631 7.64261 97.5411 7.31243 97.4005 6.44889C97.525 5.84164 97.5434 5.23439 97.3867 4.62714L97.389 4.62484Z" fill="#5EBD86"/>
<path d="M43.8782 45.6914C43.9105 45.5506 43.9427 45.412 43.9773 45.2712C44.5809 45.0518 44.9081 46.1694 45.5785 45.599C45.8481 45.3982 46.0738 45.1557 46.2512 44.8717C46.3826 44.6709 46.5162 44.47 46.6867 44.2991C46.7627 44.2391 46.841 44.1837 46.9194 44.1283C48.3593 43.9089 49.3546 44.7609 50.3683 45.5644C50.684 45.8138 50.5388 46.1001 50.4213 46.3887C50.032 47.3354 49.6472 48.2843 49.2602 49.231C49.0943 49.2102 48.933 49.164 48.7671 49.1433C47.4055 47.9772 45.8227 47.5686 44.0671 47.7833C43.1986 47.8895 42.9981 47.6009 43.4612 46.8551C44.4473 46.7697 43.9289 46.1463 43.8782 45.6891V45.6914Z" fill="#AE65A7"/>
<path d="M55.8884 54.6826C55.7963 56.0518 55.4484 57.3471 54.8378 58.5824C54.6098 59.0442 54.3425 59.5499 54.6581 60.1479C55.7801 58.9934 56.8607 57.8389 58.1993 56.9385C58.6762 56.6175 58.8559 55.8787 58.9849 55.2252C59.3121 53.5859 59.7037 51.9581 60.0677 50.3257C59.9525 53.9507 58.8282 57.3287 57.5219 60.6605C57.485 60.7528 57.3606 60.8082 57.2777 60.8821C57.1533 60.8036 57.022 60.6651 56.8768 60.7759C56.7294 60.889 56.8376 61.0507 56.8722 61.1915C56.0566 61.6672 55.3217 61.4524 54.6835 60.866C54.0706 60.3026 54.0845 59.6261 54.3794 58.871C54.9185 57.4903 55.3885 56.0795 55.8861 54.6826H55.8884Z" fill="#FDEF83"/>
<path d="M23.4032 91.4429C22.3112 89.5819 21.5647 87.5986 21.3412 85.4374C21.0602 84.2991 21.4034 83.1285 21.1592 81.9902C21.1431 81.9117 21.127 81.8308 21.1108 81.7523C21.3044 81.1035 21.4979 80.4547 21.885 79.8867C22.1637 82.4843 23.1728 84.8579 24.1151 87.2522C24.0921 87.3007 24.0691 87.3492 24.046 87.3977C22.9286 88.3628 22.5738 88.3351 22.1753 87.2499C22.0624 87.647 22.3872 87.8248 22.5669 88.0904C23.2304 89.067 23.7603 90.0922 23.53 91.339C23.4885 91.3737 23.447 91.406 23.4032 91.4406V91.4429Z" fill="#E66A20"/>
<path d="M80.0705 65.285C78.7988 66.1693 77.6169 67.1876 76.2276 67.8987C75.7484 67.9495 75.8958 67.587 75.8613 67.3446C75.8958 67.1968 75.8912 67.363 75.8567 67.2337C75.7345 66.765 76.4925 66.481 76.1861 66.107C75.7622 65.5921 75.5088 66.6196 75.0388 66.3679C74.7807 66.4141 74.6448 66.6126 74.5112 66.8089C74.4121 66.9774 74.3292 67.1552 74.2278 67.3215C73.8407 67.7071 73.3892 68.0072 72.9445 68.3189C72.1888 68.372 71.4424 68.3305 70.3618 68.1388C72.2165 66.8828 73.7624 65.7168 75.4258 64.7562C76.1838 64.3176 77.1492 64.7239 78.0131 64.8648C78.5246 65.1003 79.0683 64.9248 79.5936 64.9825C79.7987 65.0056 80.082 64.9109 80.0682 65.2827L80.0705 65.285Z" fill="#64BD8A"/>
<path d="M55.453 10.6165C55.294 10.4618 55.112 10.3209 54.9761 10.1455C54.566 9.60978 54.2526 9.42738 54.0222 10.2817C53.8863 10.792 53.1053 10.882 53.1375 11.5377C53.4094 12.0757 53.0822 12.1381 52.6837 12.0803C51.2045 11.8633 51.0041 12.1011 51.3842 13.6504C51.4004 13.7174 51.3474 13.7889 51.2944 13.8467C51.1654 14.4886 50.3152 13.9413 50.1309 14.5948C49.6955 16.1464 49.5365 17.7072 49.7692 19.305C49.8291 19.716 49.8752 20.127 49.9282 20.538C50.0272 20.6442 50.0134 20.7365 49.8913 20.8127C48.7094 16.6566 49.6863 12.9785 52.3565 9.67905C52.8772 9.03486 53.6144 9.13414 54.2711 9.28653C54.9138 9.43431 55.5036 9.77603 55.4507 10.6142L55.453 10.6165Z" fill="#FCEF88"/>
<path d="M13.9641 97.409C13.9849 97.3421 14.0056 97.2774 14.024 97.2105C15.2036 97.1851 14.5332 98.1225 14.7474 98.5981C14.7428 98.9814 14.6945 99.3647 14.5124 99.7018C13.4112 101.731 12.7799 103.994 11.4528 105.913C11.2386 106.252 11.1027 106.631 10.9252 106.991C10.8607 107.097 10.7686 107.171 10.6534 107.215C10.4576 107.245 10.2894 107.204 10.1788 107.023C10.1028 106.649 10.1673 106.285 10.2525 105.922C10.3032 105.848 10.3516 105.772 10.4023 105.698C11.0174 105.317 10.9229 104.597 11.1948 104.05L13.5102 98.552C13.5748 98.485 13.6485 98.4619 13.736 98.4827C14.1185 98.3926 13.7291 98.1571 13.8213 98.0094C13.865 97.8062 13.8374 97.5868 13.9641 97.4067V97.409Z" fill="#F8C71A"/>
<path d="M14.4663 98.8039C14.2612 98.289 14.8672 97.5478 14.0239 97.2107C14.0585 96.9105 14.2013 96.6681 14.4156 96.4603C14.6414 96.1948 14.6575 95.8207 14.8833 95.5552C15.6597 93.8674 16.4361 92.1795 17.2125 90.4917C17.2886 90.8842 17.3876 91.2744 17.4314 91.6716C17.4752 92.0618 17.6872 91.9163 17.8853 91.854C18.2654 92.4728 17.5996 92.736 17.4406 93.1701C17.3923 93.2555 17.3347 93.3386 17.2794 93.4194C17.0467 93.7011 17.0167 94.0521 16.9407 94.3915C16.0767 95.7861 15.6666 97.4046 14.775 98.7831C14.6759 98.8546 14.5746 98.8593 14.4686 98.8039H14.4663Z" fill="#FBEA77"/>
<path d="M10.2549 105.924C10.2687 106.319 10.2826 106.712 10.2964 107.106C10.5014 107.303 10.6143 107.541 10.6328 107.825C10.6097 108.219 10.3355 108.52 10.2388 108.889C9.76187 110.729 8.73202 112.329 7.99476 114.059C7.93486 114.202 7.78741 114.28 7.63305 114.32C7.04325 114.103 7.49942 113.408 7.08472 113.11C8.14222 110.715 9.19741 108.321 10.2549 105.927V105.924Z" fill="#FBEA78"/>
<path d="M134.911 59.5518C135.279 59.6972 135.542 59.6118 135.155 59.2678C134.489 58.6767 134.837 58.3096 135.3 57.8847C135.947 57.2913 136.581 56.6818 137.219 56.0768C137.309 55.9914 137.334 55.8413 137.484 55.8159C137.733 56.3539 137.645 56.9242 137.65 57.4853C137.318 57.8362 137.62 58.2634 137.516 58.642C137.353 59.1569 136.77 59.3301 136.565 59.8127C136.235 60.1013 135.862 60.2745 135.415 60.2629C135.166 60.3784 134.865 60.4476 134.699 60.219C134.528 59.9812 134.683 59.7249 134.911 59.5495V59.5518Z" fill="#BB7BB5"/>
<path d="M0.622001 128.58C0.499893 128.573 0.622001 128.476 0.502197 128.469C1.98362 125.119 3.21621 121.856 4.69994 118.508C4.8543 118.162 5.05013 117.834 5.22523 117.497C5.29204 117.418 5.37498 117.395 5.47175 117.428C5.69062 117.603 6.05003 117.638 6.06616 118.019C5.75283 119.273 5.11003 120.406 4.76905 121.648C4.30136 121.265 4.69072 120.688 4.382 120.118C3.10332 122.995 1.86151 125.786 0.619697 128.578L0.622001 128.58Z" fill="#F7C725"/>
<path d="M110.712 51.9139C110.503 53.0846 109.256 54.1536 107.978 54.2413C107.634 54.2644 107.289 54.246 106.943 54.246C105.736 54.2483 105.552 54.5184 106.024 55.6175C106.068 55.7214 106.176 55.7976 106.215 55.9015C106.464 56.548 106.144 57.6932 107.289 57.5777C107.998 57.5062 108.837 57.7648 109.473 57.146C109.6 57.0236 109.747 57.1806 109.832 57.3145C108.906 57.9957 107.842 57.9472 106.78 57.8802C106.448 57.8594 106.224 57.6724 106.128 57.333C105.835 56.3078 105.531 55.285 105.231 54.2621C105.1 53.8119 105.188 53.6041 105.715 53.7611C107.835 54.3914 109.408 53.514 110.71 51.9116L110.712 51.9139Z" fill="#1CB5DA"/>
<path d="M101.278 67.633C101.197 68.0971 101.538 68.9768 100.449 68.4296C100.202 68.3072 99.9901 68.672 100.048 68.8429C100.338 69.6926 99.7067 69.6118 99.239 69.711C99.2713 68.3903 99.6445 67.2012 100.575 66.2292C101.034 66.0306 101.536 65.4488 101.974 66.0352C102.229 66.3793 103.08 66.7002 102.43 67.4044C102.084 67.6723 101.621 67.3513 101.278 67.6353V67.633Z" fill="#7BC99B"/>
<path d="M65.8138 75.7351C66.0166 75.1093 66.8045 75.1555 67.0625 74.3289C67.4381 73.1237 66.8045 73.4423 66.247 73.3938C67.7745 72.3063 68.7099 73.5 69.7489 74.3035C69.5254 74.5968 69.2213 74.5344 68.9333 74.4698C68.6246 74.4005 68.4311 74.4905 68.3389 74.7953C67.5164 75.1601 66.7124 75.5781 65.8115 75.7351H65.8138Z" fill="#FBEF8A"/>
<path d="M101.28 93.9456C101.094 93.9271 100.907 93.9063 100.723 93.8879C100.663 94.6821 99.7897 95.0285 99.6768 95.795C99.7528 95.8458 99.7781 95.892 99.7505 95.9405C99.7229 95.9867 99.6975 96.0098 99.6699 96.0098C99.5109 96.0098 99.3519 96.0075 99.1953 96.0052C99.0432 95.7396 98.4511 96.1668 98.5133 95.5665C98.1884 95.1116 98.4741 94.8345 98.7575 94.4882C99.1837 93.9687 99.898 93.7216 100.126 93.0243C100.225 92.9412 100.34 92.9043 100.469 92.9135C101.188 92.902 101.561 93.1652 101.278 93.9433L101.28 93.9456Z" fill="#BE7EB8"/>
<path d="M104.98 64.8509C104.672 65.4258 103.976 65.5413 103.589 66.0239C103.204 66.2224 102.794 66.0585 102.398 66.1139C101.939 66.0446 101.898 65.6129 101.707 65.3104C102.706 64.5069 103.805 64.4053 104.978 64.8509H104.98Z" fill="#75C494"/>
<path d="M7.0845 113.11C8.09131 113.161 7.24577 113.939 7.53837 114.269C7.66969 114.403 7.69273 114.564 7.66739 114.74C7.37249 115.393 7.28494 116.206 6.39793 116.409C6.22283 116.349 6.09842 116.234 6.0293 116.063C6.01778 115.827 6.00626 115.594 6.13528 115.38C6.45322 114.622 6.76886 113.865 7.0868 113.11H7.0845Z" fill="#F7C924"/>
<path d="M99.6698 96.0099C99.6698 95.9383 99.6698 95.8667 99.6744 95.7952C102.137 95.7651 104.566 95.4327 106.982 94.9986C107.319 94.9385 107.634 94.77 107.941 95.054C105.225 95.7282 102.476 96.1369 99.6675 96.0099H99.6698Z" fill="#A470A1"/>
<path d="M74.3269 66.7049C74.4835 66.4763 74.6379 66.2501 74.7946 66.0215C75.2484 66.4879 75.753 66.9012 76.1723 67.4022C76.1239 67.5754 75.9419 67.7647 76.2299 67.8986C75.7829 68.3974 75.2715 68.7345 74.5596 68.559C74.4766 68.5267 74.4536 68.4713 74.4904 68.3905C74.4789 68.2173 74.3407 68.4343 74.3038 68.3281C74.0803 68.0764 74.0734 67.797 74.1932 67.5038C74.578 67.296 74.525 67.012 74.3269 66.7049Z" fill="#6FC192"/>
<path d="M95.0619 46.6313C95.4029 47.2848 95.3661 47.5087 94.7509 48.5108C95.0182 48.8064 95.2877 48.3561 95.5481 48.5039C95.2716 48.9564 94.7832 49.0834 94.1404 49.4413C94.3132 48.3307 94.6449 47.4695 95.0643 46.6313H95.0619Z" fill="#F9D46E"/>
<path d="M119.516 8.79717C118.868 9.14351 118.815 9.43906 119.394 10.0163C120.239 10.8614 121.269 11.554 121.811 12.6785C120.712 11.9535 119.937 10.8821 118.991 9.99551C118.767 9.7854 118.311 9.61223 118.521 9.18738C118.709 8.80641 119.097 8.71174 119.514 8.79717H119.516Z" fill="#FCF3D4"/>
<path d="M90.9128 39.0116C89.5558 37.9195 88.966 34.687 89.8622 33.2254C89.8691 33.2139 89.9336 33.2254 89.9636 33.2393C89.9958 33.2554 90.0166 33.2901 90.0442 33.3178C89.9037 34.1721 89.7447 35.0195 89.7539 35.8992C89.7677 37.1529 90.3645 38.1134 91.1317 39.0139C91.0579 39.1247 90.9842 39.1247 90.9128 39.0139V39.0116Z" fill="#A26D9E"/>
<path d="M45.7674 45.7028C44.8528 46.8873 44.5786 45.3958 43.9773 45.2711C44.081 44.8139 44.1731 44.3475 44.6316 44.0866C44.7192 44.0012 44.8113 44.0012 44.9058 44.075C44.9219 44.7608 45.9218 44.9247 45.7674 45.7028Z" fill="#BF84B9"/>
<path d="M101.709 65.3103C102.243 65.2434 101.969 66.0053 102.43 66.0169C102.824 66.0792 102.978 66.384 103.119 66.7026C102.96 67.0028 102.886 67.3907 102.432 67.4022C101.999 66.0723 101.824 65.9614 100.575 66.2293C100.838 65.7813 101.179 65.4304 101.706 65.3103H101.709Z" fill="#6CC090"/>
<path d="M101.28 93.9456C101.202 93.4007 101.015 92.9689 100.347 93.0197C100.278 92.9736 100.255 92.9274 100.281 92.8835C100.306 92.8397 100.329 92.8166 100.352 92.8166C101.273 92.7473 102.195 92.6757 103.117 92.6064C102.898 92.932 102.402 92.6596 102.202 93.0267C102.26 93.1698 101.79 93.0221 102.066 93.2576C102.167 93.3453 102.319 93.3869 102.428 93.4862C102.308 93.7817 101.905 93.7124 101.776 94.1373C101.64 94.5852 101.34 94.3405 101.28 93.9479V93.9456Z" fill="#B97CB2"/>
<path d="M75.2253 2.48193C74.9465 3.30391 74.7438 4.16514 74.3659 4.93864C73.995 5.69597 74.0802 6.31938 74.541 6.95664C73.8913 6.80425 73.7231 6.36094 73.8084 5.756C73.9835 4.53457 74.3659 3.40782 75.223 2.48424L75.2253 2.48193Z" fill="#22B5D8"/>
<path d="M87.7355 34.1768C87.7101 35.8161 87.6871 37.4577 87.6617 39.0971C87.0005 37.4462 87.2747 35.8092 87.7355 34.1768Z" fill="#A570A1"/>
<path d="M74.3267 67.4C74.3589 67.7187 74.2207 68.0812 74.5571 68.3259C74.5571 68.4044 74.5571 68.4829 74.5571 68.5591C74.0111 68.5407 73.4489 68.6238 72.9443 68.319C73.0595 67.6633 73.6862 67.527 74.1009 67.1738C74.3083 67.1184 74.382 67.1946 74.3267 67.4Z" fill="#7FC99E"/>
<path d="M49.8914 20.8128C49.9029 20.7205 49.9144 20.6304 49.9282 20.5381C50.3752 21.9904 50.9742 23.4058 51.0525 24.9528C50.4812 23.6251 49.942 22.2883 49.8914 20.8128Z" fill="#FDF07F"/>
<path d="M123.135 5.70996C122.697 7.2962 121.626 8.24517 120.103 8.73928C121.285 7.90114 122.28 6.87597 123.135 5.70996Z" fill="#FBD05F"/>
<path d="M28.7529 36.2228C28.0271 35.5993 27.4788 34.9344 28.2368 33.9692C29.1929 34.5395 28.5732 35.4724 28.7529 36.2228Z" fill="#2FBEDF"/>
<path d="M89.1203 56.3032C88.3093 56.2108 88.1319 56.6172 88.1181 57.3653C88.1066 57.9425 88.6872 58.5013 88.1711 59.0808C88.0167 58.0765 87.8624 57.0698 87.6919 55.9453C88.2517 55.9776 88.6964 56.0746 89.1203 56.3009V56.3032Z" fill="#CE5E5C"/>
<path d="M94.8892 27.4878C95.1035 27.7048 95.1288 28.0004 95.0343 28.2336C94.5666 29.3973 95.0205 30.5471 95.0343 31.7039C94.1773 30.3278 94.5321 28.9078 94.8869 27.4901L94.8892 27.4878Z" fill="#A2699B"/>
<path d="M134.91 59.5518C134.779 60.002 134.798 60.346 135.415 60.2652C135.063 60.5354 134.646 60.4915 134.24 60.5053C133.332 59.6903 133.348 59.5772 134.447 59.0923C134.493 59.3532 134.652 59.5033 134.91 59.5518Z" fill="#BE80B9"/>
<path d="M77.5408 87.2939C76.3313 87.6634 75.2185 87.287 74.1172 86.8414C75.283 86.809 76.4211 86.9753 77.5408 87.2939Z" fill="#A570A0"/>
<path d="M100.352 92.8167C100.352 92.8837 100.352 92.953 100.347 93.0199C100.273 93.0222 100.2 93.0245 100.126 93.0269C98.5916 92.8837 97.0295 93.3201 95.5159 92.7983C95.9997 92.602 96.4858 92.6528 96.9766 92.7706C98.1009 92.7867 99.2275 92.8006 100.352 92.8167Z" fill="#A46A9C"/>
<path d="M43.8781 45.6914C43.9702 45.8069 44.1569 45.9431 44.1384 46.0331C44.0509 46.4418 44.9333 46.2525 44.5785 46.7604C44.2628 47.2084 43.8597 47.0906 43.4634 46.8574C43.5095 46.4349 43.6247 46.0401 43.8804 45.6914H43.8781Z" fill="#BE83B7"/>
<path d="M43.1892 71.1222C43.9357 70.7781 44.8711 71.3438 45.5392 70.6304C44.9771 71.6532 44.4034 71.7733 43.1892 71.1222Z" fill="#41BCDD"/>
<path d="M44.8643 44.1051C44.786 44.0981 44.7076 44.0935 44.6316 44.0866C44.8781 43.7449 45.2306 43.888 45.5486 43.8857C46.0116 44.0104 46.4701 44.1466 46.9194 44.3152C46.765 44.5461 46.6107 44.777 46.4563 45.0102C45.5854 45.308 45.3043 44.5669 44.8643 44.1051Z" fill="#C083B9"/>
<path d="M47.3179 34.3798C47.023 33.3177 47.0829 32.2532 47.2879 31.1865C47.5598 32.2486 47.5943 33.313 47.3179 34.3798Z" fill="#D55858"/>
<path d="M96.9766 92.7706C96.4904 92.7798 96.0043 92.7891 95.5159 92.7983C94.8846 92.8537 94.2741 92.7498 93.6751 92.5628C93.6013 92.5166 93.576 92.4704 93.6013 92.4243C93.6267 92.3781 93.6497 92.355 93.6751 92.355C94.7763 92.4935 95.8753 92.6321 96.9766 92.7706Z" fill="#A46FA1"/>
<path d="M101.471 28.6054C101.174 27.8435 101.149 27.0815 101.485 26.3242C101.762 27.0862 101.753 27.8481 101.471 28.6054Z" fill="#A05E97"/>
<path d="M56.8723 61.1915C56.5406 61.1407 56.2917 61.0137 56.4392 60.6189C56.5198 60.3995 56.7064 60.2587 56.953 60.2887C57.3147 60.3326 57.2617 60.6327 57.2801 60.8821C57.1442 60.986 57.0082 61.0876 56.8746 61.1915H56.8723Z" fill="#F8ED7C"/>
<path d="M68.3411 74.7956C67.9956 74.4539 67.8619 74.1329 68.5301 74.1214C68.9356 74.1144 69.341 74.2391 69.7488 74.3038V74.3084C69.6935 74.9941 69.0346 74.4562 68.7996 74.7794C68.6453 74.784 68.4932 74.7887 68.3388 74.7933L68.3411 74.7956Z" fill="#FEEF71"/>
<path d="M74.5317 6.94971C75.3565 7.14828 75.9924 7.5939 76.3841 8.36508C75.6722 8.01874 75.0478 7.55696 74.5317 6.94971Z" fill="#22B5D8"/>
<path d="M102.674 20.3672C103.292 19.4483 104.172 19.9239 104.962 19.9401C104.964 19.9401 104.978 20.007 104.966 20.0347C104.955 20.0694 104.923 20.0948 104.902 20.1248C104.135 19.9862 103.402 20.1456 102.674 20.3672Z" fill="#A2699B"/>
<path d="M96.654 95.7815C97.0296 95.8 97.3936 95.83 97.7277 95.5622C97.965 95.3728 98.0318 95.5922 98.0617 95.7908C98.1378 95.8439 98.1631 95.8924 98.1355 95.9432C98.1078 95.9916 98.0825 96.0147 98.0548 96.0147C97.2669 96.0124 96.4674 96.1463 95.7048 95.8323C96.009 95.5876 96.3315 95.6568 96.6563 95.7792L96.654 95.7815Z" fill="#BE7EB8"/>
<path d="M78.9622 80.1153C79.7639 79.6119 80.6233 79.919 81.4596 79.9513C81.4665 79.9513 81.4803 80.016 81.4734 80.0437C81.4642 80.0783 81.432 80.1037 81.4089 80.136C80.5933 80.1291 79.7777 80.1222 78.9622 80.1153Z" fill="#D15A62"/>
<path d="M44.4105 56.5389C43.7078 56.1257 43.3898 55.5138 43.4658 54.6987C43.922 55.239 44.2215 55.8601 44.4105 56.5389Z" fill="#22B4DA"/>
<path d="M6.13298 115.379C6.13759 115.624 6.14219 115.867 6.1468 116.111C6.16754 116.7 6.17675 117.282 5.45332 117.494C5.37729 117.494 5.30126 117.494 5.22754 117.494C5.4418 116.751 5.71367 116.033 6.13298 115.379Z" fill="#F6CA28"/>
<path d="M100.578 6.45793C100.013 6.05156 100.145 5.51127 100.221 4.9502C100.7 5.01946 100.525 5.37273 100.612 5.58977C100.601 5.88069 100.589 6.16931 100.575 6.46024L100.578 6.45793Z" fill="#56BA7A"/>
<path d="M77.9991 8.30273C77.9876 8.6814 77.9784 9.06237 77.9669 9.44104C77.4531 9.46182 77.1467 9.12702 76.8472 8.78299C77.3172 8.82917 77.8102 8.93307 77.9991 8.30273Z" fill="#4DBAD9"/>
<path d="M136.565 59.8174C136.42 59.0993 137.108 58.9954 137.438 58.626C137.618 58.8384 137.611 59.0531 137.452 59.2725C137.201 59.5241 136.931 59.7504 136.567 59.8197L136.565 59.8174Z" fill="#A5709E"/>
<path d="M137.45 59.2703C137.445 59.0556 137.44 58.8408 137.436 58.6238C137.431 58.2313 136.996 57.7579 137.648 57.4878C137.581 58.0812 138.06 58.7369 137.447 59.2703H137.45Z" fill="#976895"/>
<path d="M42.7884 32.3252C43.2054 33.0617 42.9635 33.8445 42.9427 34.611C42.9427 34.6249 42.8828 34.6503 42.8552 34.648C42.8206 34.6434 42.7884 34.6157 42.7561 34.5972C42.7676 33.8399 42.7768 33.0825 42.7884 32.3252Z" fill="#D3595D"/>
<path d="M98.0593 81.6991C98.898 81.3481 99.7366 81.3689 100.578 81.6852C99.7389 81.8122 98.9003 81.8145 98.0593 81.6991Z" fill="#5BB082"/>
<path d="M42.5811 53.3017C41.9037 52.9692 41.5973 52.3665 41.3992 51.6831C41.9268 52.1241 42.3138 52.669 42.5811 53.3017Z" fill="#2EBCDE"/>
<path d="M80.0705 65.2852C79.4576 64.7888 78.6144 65.4238 78.0154 64.865C78.7549 64.8627 79.5014 64.7773 80.2133 65.059C80.2271 65.0636 80.2364 65.1375 80.2202 65.1582C80.1788 65.2067 80.1212 65.2437 80.0705 65.2852Z" fill="#67BF8C"/>
<path d="M39.7703 55.1858L39.6597 55.1581L39.5468 55.1765C39.4754 55.0957 39.4016 55.0172 39.3302 54.9364C39.3717 54.4585 38.8487 54.2414 38.8049 53.8027C39.4339 54.0498 39.6873 54.5601 39.7703 55.1881V55.1858Z" fill="#30B6D9"/>
<path d="M106.326 17.3539C105.649 17.6518 104.971 17.6472 104.294 17.3516C104.971 17.2223 105.649 17.1254 106.326 17.3539Z" fill="#975C8E"/>
<path d="M118.11 50.314C117.447 50.1085 117.226 49.739 117.67 49.1226C117.947 49.4712 118.14 49.8522 118.11 50.314Z" fill="#43BFE0"/>
<path d="M93.6752 92.3549C93.6752 92.4241 93.6752 92.4934 93.6752 92.5604C93.1038 92.625 92.59 92.378 92.0509 92.2579C92.0394 92.2556 92.0302 92.1886 92.0394 92.1586C92.0509 92.1263 92.0832 92.0986 92.1085 92.0709C92.6499 92.057 93.166 92.1817 93.6752 92.3572V92.3549Z" fill="#9D689A"/>
<path d="M46.9194 44.3178C46.3135 44.6549 45.9748 44.1284 45.5486 43.8883C46.0324 43.8213 46.5162 43.7498 46.9194 44.1307C46.9194 44.1931 46.9194 44.2554 46.9194 44.3178Z" fill="#B37AAC"/>
<path d="M101.071 40.6466C101.036 40.3349 100.859 40.1641 100.55 40.1248C100.767 39.8732 101.045 39.5153 101.347 39.8154C101.631 40.0948 101.269 40.3973 101.071 40.6466Z" fill="#F1D98E"/>
<path d="M68.802 74.7791C69.0163 74.4166 69.5485 74.696 69.7512 74.3081C69.9424 74.3243 70.159 74.3381 70.2143 74.5552C70.265 74.756 70.0899 74.7884 69.9355 74.7907C69.5577 74.7907 69.1798 74.7837 68.802 74.7791Z" fill="#FBEF8A"/>
<path d="M11.1948 104.052C11.1165 104.691 11.2132 105.414 10.4045 105.7C10.6672 105.151 10.9321 104.601 11.1948 104.052Z" fill="#F6C81C"/>
<path d="M130.3 55.4282C130.206 56.0285 130.517 56.6797 130.082 57.2384C130.222 56.6427 129.566 55.9524 130.3 55.4282Z" fill="#9D5F99"/>
<path d="M96.654 95.7813C96.3361 95.7998 96.0204 95.8159 95.7025 95.8344C95.3408 95.8021 94.979 95.7698 94.6196 95.7374C95.3039 95.4811 95.9836 95.428 96.654 95.7813Z" fill="#956592"/>
<path d="M137.484 55.8184C137.396 55.9062 137.309 55.9916 137.219 56.0793C137.185 55.5529 137.314 55.0034 136.996 54.5185C137.175 54.38 137.387 54.1952 137.436 54.6016C137.484 55.0034 137.47 55.4121 137.484 55.8184Z" fill="#9F669B"/>
<path d="M97.3891 4.625C97.7185 5.22994 97.7024 5.83719 97.4029 6.44675C97.2416 5.84181 97.2808 5.23225 97.3891 4.625Z" fill="#5EAE80"/>
<path d="M69.2695 91.2095C69.5713 90.6069 70.1013 90.4707 70.7141 90.5123C70.2326 90.7455 69.7511 90.9763 69.2695 91.2095Z" fill="#A975A1"/>
<path d="M112.841 93.5141C112.961 92.9369 113.288 92.9531 113.701 93.2093C113.443 93.3894 113.166 93.5234 112.841 93.5141Z" fill="#A46EA0"/>
<path d="M90.9126 39.0117C90.9863 39.0117 91.0577 39.0117 91.1315 39.0117C91.4563 39.3973 91.2513 39.776 91.1199 40.1569C90.7651 39.8268 90.9656 39.3973 90.9126 39.0117Z" fill="#955F8F"/>
<path d="M45.302 28.3677C44.8021 28.7994 44.263 28.6471 43.7192 28.4808C44.2468 28.4439 44.7744 28.4046 45.302 28.3677Z" fill="#C85E5B"/>
<path d="M66.2861 92.5075C66.7354 92.182 67.24 92.3875 67.7192 92.3528C67.2837 92.81 66.7884 92.6946 66.2861 92.5075Z" fill="#9A6696"/>
<path d="M29.656 41.1244C29.8357 40.6973 30.1583 40.4017 30.5338 40.1523C30.4716 40.6834 30.2043 41.0344 29.656 41.1244Z" fill="#44B9D9"/>
<path d="M71.7532 87.0005C71.9283 87.0259 72.1034 87.0536 72.5481 87.1206C71.8707 87.2706 71.479 87.3676 71.1196 87.0651C71.3316 87.0444 71.5436 87.0213 71.7555 87.0005H71.7532Z" fill="#976090"/>
<path d="M25.9583 119.113C26.2647 118.762 26.6517 118.619 27.1102 118.656C26.8061 119.009 26.4144 119.146 25.9583 119.113Z" fill="#FCF5BE"/>
<path d="M109.296 91.3761C109.095 91.764 108.833 91.9441 108.425 91.6416C108.687 91.4615 108.975 91.3669 109.296 91.3761Z" fill="#9C6197"/>
<path d="M54.9878 34.8535C55.338 35.1629 55.4808 35.5554 55.4324 36.0172C55.1053 35.6986 54.944 35.3153 54.9878 34.8535Z" fill="#FDF1A2"/>
<path d="M17.6573 89.3301C17.7172 89.7988 17.5329 90.1705 17.2103 90.4915C17.132 90.0158 17.3278 89.6487 17.6573 89.3301Z" fill="#FBEA77"/>
<path d="M13.9642 97.409C13.9549 97.6307 13.9457 97.8547 13.9365 98.0763C13.9549 98.268 13.9135 98.4273 13.7222 98.515C13.6508 98.5243 13.5817 98.5381 13.5103 98.552C13.4711 98.0948 13.637 97.7184 13.9642 97.4067V97.409Z" fill="#FEF5C1"/>
<path d="M98.0526 96.0148C98.0503 95.9409 98.0526 95.8647 98.0595 95.7909C98.2116 95.717 98.3613 95.6408 98.5111 95.5669C98.7392 95.7124 98.965 95.8578 99.1931 96.0056C98.8129 96.0079 98.4328 96.0125 98.0526 96.0148Z" fill="#A5719D"/>
<path d="M115.067 92.0938C114.77 91.7244 114.788 91.3503 115.044 90.9717C115.175 91.3434 115.18 91.7175 115.067 92.0938Z" fill="#966493"/>
<path d="M65.5558 90.1523C65.5305 90.568 65.7102 91.0066 65.4038 91.3876C65.2909 90.9558 65.2264 90.531 65.5558 90.1523Z" fill="#976E95"/>
<path d="M14.8835 95.5552C14.8743 95.9338 14.7683 96.2617 14.4158 96.4626C14.4181 96.0816 14.501 95.7422 14.8835 95.5552Z" fill="#FEF5C1"/>
<path d="M48.7693 49.1457C48.9859 48.8848 49.1333 49.0049 49.2623 49.2334C48.9836 49.8476 48.919 49.2496 48.7693 49.1457Z" fill="#A06F9E"/>
<path d="M95.5388 48.5084C95.7531 48.1482 96.0848 48.0258 96.4834 48.0374C96.2553 48.3722 95.942 48.5315 95.5388 48.5084Z" fill="#F9D46E"/>
<path d="M44.8412 57.4784C44.4242 57.2891 44.3298 56.9497 44.4058 56.5317C44.6707 56.7903 44.832 57.0997 44.8412 57.4784Z" fill="#22B4DA"/>
<path d="M104.216 92.519C103.978 93.027 103.672 92.8077 103.368 92.5998C103.651 92.5721 103.934 92.5468 104.216 92.519Z" fill="#955E94"/>
<path d="M124.294 3.0476C124.147 3.26234 124.002 3.47707 123.854 3.69411C124.006 3.48168 123.474 2.80286 124.294 3.0476Z" fill="#F6E7B9"/>
<path d="M26.8753 90.951C26.4905 91.1773 25.6266 90.7155 25.7947 91.7684C25.8431 92.0709 25.4469 92.1217 25.2026 91.9069C24.8547 91.6022 24.781 92.0316 24.576 92.1101C24.0991 91.9808 23.9171 91.6345 23.8894 91.175C23.8986 90.7963 24.0922 90.5262 24.3894 90.3138C24.8363 90.1775 24.8686 89.4295 25.4952 89.5564C25.5713 89.6349 25.645 89.7158 25.721 89.7943C25.8915 90.0829 26.092 90.3415 26.4122 90.4777C26.7117 90.4916 26.8707 90.6439 26.8753 90.9487V90.951Z" fill="#E98544"/>
<path d="M25.4952 89.5564C24.9676 89.6395 25.2026 90.4915 24.5736 90.473C23.4239 89.5449 23.8617 88.3858 24.1128 87.2544C24.774 87.9009 25.2164 88.679 25.4929 89.5587L25.4952 89.5564Z" fill="#E66A20"/>
<path d="M26.4122 90.4803C25.8961 90.5427 25.6796 90.3002 25.721 89.7969C26.1634 89.8084 26.198 90.2356 26.4122 90.4803Z" fill="#E3701E"/>
<path d="M114.68 62.4331C115.678 61.8262 116.742 62.0782 117.426 63.2163C119.456 66.6012 119.603 70.0118 117.403 73.3989C117.14 74.2645 116.438 74.7399 115.76 75.2339L115.758 75.2368C113.411 76.9385 110.878 78.0833 107.89 77.8755C107.441 77.8455 107.264 78.2499 107.003 78.52C105.239 80.3394 103.146 81.5007 100.578 81.6831C99.7367 81.5515 98.8977 81.5213 98.0591 81.6968C93.9399 81.655 89.6299 78.2913 88.1392 73.9624C87.736 72.7942 87.4939 71.5933 87.4155 70.3628C87.3349 69.0675 87.729 68.5247 88.8003 68.3931C89.7609 68.2755 90.7122 68.9544 90.855 69.9956C90.9794 70.912 91.1108 71.8169 91.394 72.6987C93.016 77.7691 99.5436 80.1267 103.539 77.0835C103.596 77.0396 103.637 76.9749 103.759 76.8413C101.089 75.2066 99.0824 73.1309 99.2437 69.7114C99.6791 68.8202 100.417 68.2125 101.186 67.6353C101.456 67.3539 101.836 67.4048 102.163 67.2964C102.248 67.2571 102.334 67.2198 102.417 67.1782C102.672 67.035 102.806 66.7881 102.942 66.5435C103.096 66.2828 103.292 66.0542 103.478 65.8188C103.937 65.4263 104.301 64.8903 104.983 64.8511C106.28 65.1397 107.117 66.0173 107.752 67.1001C108.907 69.0718 109.385 71.2217 109.231 73.5005C109.196 74.0082 109.061 74.4123 109.841 74.3247C112.429 74.0384 115.021 71.6302 115.417 69.0581C115.646 67.5804 115.168 66.2616 114.413 65.0171C113.675 63.8027 113.766 62.9895 114.68 62.4331ZM103.69 68.1636C103.07 68.2513 102.897 68.8408 102.8 69.3765C102.524 70.8885 103.149 72.0684 104.25 73.0288C104.609 73.3428 105.033 73.8806 105.492 73.6636C105.885 73.4788 105.644 72.8281 105.692 72.521C105.724 71.2051 105.409 70.1084 104.893 69.0649C104.647 68.5662 104.298 68.0781 103.69 68.1636Z" fill="#5EBD85"/>
<path d="M103.117 66.7028C102.806 66.5573 102.582 66.3241 102.428 66.017C102.817 65.2389 103.2 66.2848 103.589 66.0216C103.432 66.2479 103.273 66.4742 103.117 66.7005V66.7028Z" fill="#80CB9E"/>
<path d="M101.278 67.633C101.601 67.2474 102.043 67.4599 102.43 67.4021C102.107 67.7877 101.665 67.5776 101.278 67.633Z" fill="#6CC090"/>
<path d="M34.4782 109.415C34.1534 109.716 33.8585 110.124 33.3562 109.679C33.2295 109.566 33.0498 109.362 32.9623 109.695C32.9323 109.813 33.0475 109.97 33.0982 110.108C32.8747 110.371 32.6858 110.073 32.4784 110.067C32.5499 110.311 32.7111 110.339 32.9185 110.249C32.9876 110.219 33.0452 110.166 33.0959 110.108C33.4968 110.568 33.2687 110.745 32.7825 110.796C32.4347 110.833 32.0038 110.711 31.9416 111.26C31.1237 111.283 31.2067 110.591 31.0247 110.108C31.5062 109.3 32.5337 108.974 32.8678 108.032C33.8562 107.963 34.2847 108.55 34.4782 109.413V109.415Z" fill="#FECD33"/>
<path d="M19.0535 97.8779C19.0489 97.7232 19.0466 97.5662 19.042 97.4115C19.042 97.363 19.042 97.3145 19.042 97.266C19.1134 96.9312 19.2378 96.6126 19.2977 96.2732C19.489 95.7814 19.6848 95.2919 20.0811 94.9178C20.7239 94.4122 21.3482 94.8901 21.9818 94.9478C22.2882 95.0517 22.5094 95.1995 22.2675 95.5597C21.8666 95.6405 21.4565 95.7837 21.0764 95.3034C21.4496 96.1785 21.415 96.7788 20.4266 96.952H20.429C20.369 97.8525 19.6295 97.744 19.0512 97.8779H19.0535Z" fill="#FDCD34"/>
<path d="M21.8019 93.2506C22.0922 92.6179 22.5438 92.1469 23.1866 91.8652C23.5921 92.0407 23.6197 92.5048 23.8893 92.7842L23.9008 92.7819C23.1543 93.179 23.4884 94.2573 22.7327 94.6498C21.9632 94.4905 21.4356 94.1695 21.7996 93.2506H21.8019Z" fill="#FECC2F"/>
<path d="M31.0247 110.108C31.3311 110.492 31.6352 110.877 31.9416 111.261C31.9117 111.533 32.0361 111.965 31.5269 111.838C30.9832 111.702 30.8473 111.983 30.7943 112.417C30.1584 112.424 29.9257 111.923 29.6377 111.494C30.1008 111.032 30.5616 110.57 31.0247 110.108Z" fill="#FECE33"/>
<path d="M35.6141 105.287C36.1625 104.895 36.7108 104.504 37.2591 104.112C37.6231 104.047 37.7706 104.195 37.7015 104.56C37.8121 104.756 37.9088 104.962 38.0378 105.144C38.1392 105.287 38.3696 105.386 38.1369 105.587C38.0033 105.703 37.8743 105.654 37.7429 105.543C37.1462 105.031 37.0564 105.698 36.7914 105.961C36.4481 105.954 36.1417 105.816 35.8307 105.689C35.7431 105.643 35.674 105.578 35.621 105.495C35.621 105.426 35.6187 105.356 35.6118 105.287H35.6141Z" fill="#EA8444"/>
<path d="M35.621 105.495C35.6993 105.495 35.7776 105.495 35.8536 105.495C36.0495 105.768 36.5955 105.673 36.5725 106.179C36.1416 106.578 36.114 107.051 36.319 107.566C35.3399 107.756 34.9759 107.495 34.7063 106.414C34.8699 105.966 35.1717 105.659 35.6186 105.495H35.621Z" fill="#FDCC31"/>
<path d="M34.7086 106.414C35.1325 106.957 35.4758 107.615 36.3214 107.566C36.1048 107.963 35.7984 108.273 35.3998 108.49C34.9851 107.979 34.2939 107.748 34.0151 107.1C34.1695 106.793 34.4022 106.564 34.7086 106.412V106.414Z" fill="#FDC920"/>
<path d="M21.8021 93.2508C21.6869 94.0012 22.3412 94.2391 22.7352 94.6501C22.6914 95.0103 22.5716 95.3335 22.2675 95.5598C22.2629 95.2596 22.1085 95.1095 21.8113 95.1003C21.5026 94.6801 20.8506 94.4307 21.1178 93.7196C21.3459 93.5626 21.5763 93.4055 21.8044 93.2485L21.8021 93.2508Z" fill="#FBC921"/>
<path d="M34.0151 107.102C34.4897 107.552 35.2845 107.679 35.3997 108.492C35.3237 108.568 35.2454 108.644 35.1693 108.721C34.0266 108.751 33.6695 108.395 33.7847 107.338L34.0151 107.102Z" fill="#FDD035"/>
<path d="M29.64 111.492C30.2022 111.577 30.3911 112.133 30.7966 112.415C31.0108 112.628 31.179 112.905 30.7666 113.009C30.2805 113.133 29.5179 112.066 29.64 111.489V111.492Z" fill="#FDD034"/>
<path d="M33.7848 107.335C33.7686 108.275 34.416 108.55 35.1694 108.718C34.939 108.949 34.7086 109.183 34.4806 109.413C34.1396 108.725 33.5359 108.342 32.8701 108.033C33.1742 107.8 33.4807 107.569 33.7848 107.335Z" fill="#FDC91E"/>
<path d="M36.5723 106.179C36.3327 105.95 36.0931 105.724 35.8535 105.495C36.2291 105.523 36.5516 105.657 36.7912 105.959C36.7912 106.026 36.7912 106.093 36.7958 106.16C36.7221 106.172 36.6461 106.176 36.5723 106.176V106.179Z" fill="#E29131"/>
<path d="M37.7014 104.56C37.5539 104.41 37.4065 104.262 37.259 104.112C37.418 103.466 38.4363 103.503 38.381 102.602C38.7013 103.189 39.0031 103.706 39.692 103.888C38.9017 103.858 38.8027 105.627 37.7014 104.558V104.56Z" fill="#ED8546"/>
<path d="M24.1152 91.189C24.0829 91.5907 24.4515 91.7893 24.5782 92.1102C24.3455 92.4704 24.1175 92.1587 23.8871 92.1079C23.5945 91.9278 23.5576 91.6392 23.5599 91.3344C23.6912 91.0758 23.864 90.9881 24.1152 91.1913V91.189Z" fill="#EC854C"/>
<path d="M23.8917 92.7866C23.5023 92.5996 23.2166 92.3341 23.189 91.8677C23.2535 91.7961 23.3157 91.7269 23.3802 91.6553C23.788 91.7038 23.6935 92.1263 23.8824 92.3364L23.8917 92.7866Z" fill="#FEC841"/>
<path d="M23.8824 92.3363C23.7142 92.11 23.5483 91.8815 23.3801 91.6552C23.394 91.5859 23.4032 91.5143 23.4032 91.4451L23.4239 91.3989C23.5022 91.3019 23.5783 91.3042 23.6497 91.4081C23.728 91.6413 23.8064 91.8745 23.887 92.1077C23.887 92.1839 23.887 92.2601 23.8824 92.3363Z" fill="#DF8227"/>
<path d="M51.2946 13.8469C50.0551 12.7963 51.3176 12.0782 51.5503 11.3302C52.2069 11.0138 52.4235 12.5216 53.14 11.538C53.6423 11.8335 53.693 12.0898 53.1539 12.4454C52.5065 12.8725 51.912 13.3759 51.2946 13.8492V13.8469Z" fill="#FDF07F"/>
<path d="M10.059 108.716C10.0291 108.314 10.4184 108.116 10.5152 107.776C10.4253 107.492 10.5751 107.294 10.7525 107.107C10.7778 107.049 10.7847 106.987 10.7732 106.924C10.9691 106.619 11.0612 106.269 11.2248 105.948C12.1072 104.098 12.9919 102.251 13.8674 100.399C14.1093 99.8843 14.4457 99.4018 14.4687 98.8015C14.5309 98.7945 14.5931 98.7899 14.6553 98.7876C15.1645 99.5495 14.9687 100.48 15.2474 101.29C15.5032 102.034 15.3004 103.02 16.2819 103.412C16.4224 104.015 15.9041 104.234 15.6068 104.583C15.6506 104.92 15.4893 105.195 15.3488 105.479C14.2061 108.026 13.0633 110.57 11.9206 113.117C11.8376 113.115 11.7547 113.11 11.6695 113.108C10.6327 112.415 10.7156 111.244 10.4875 110.224C10.3723 109.709 10.4069 109.162 10.0613 108.714L10.059 108.716Z" fill="#FDE692"/>
<path d="M16.2795 103.414C15.9085 103.798 15.5353 104.07 15.3786 103.267C15.0884 101.782 14.5838 100.332 14.6529 98.7897C15.2059 97.1873 15.9316 95.6634 16.7426 94.1765C16.9177 93.8809 16.9591 93.5184 17.1987 93.2552V93.2506C17.5789 93.022 17.7816 93.2644 17.8922 93.56C18.3161 94.6867 18.5811 95.8666 18.9774 97.0049C19.0258 97.1457 18.9129 97.2912 18.8184 97.4136C18.9059 98.134 18.5511 98.6581 18.2033 99.27C17.4545 100.588 16.9108 102.027 16.2818 103.414H16.2795Z" fill="#FEF5C1"/>
<path d="M18.8161 97.4138C18.406 96.0931 18.0028 94.7724 17.5743 93.4586C17.542 93.3593 17.3301 93.3201 17.2011 93.2531C17.1665 92.6574 17.9544 92.4681 17.8853 91.8562C18.7608 90.2838 19.9911 90.3 21.0786 91.8931C21.3896 92.3434 21.2905 92.7959 21.0786 93.2462C20.8896 93.3524 20.8873 93.5371 20.8827 93.7195C20.9242 94.3152 20.4818 94.6708 20.1962 95.1049C19.9612 95.5666 19.7262 96.0284 19.4912 96.4902C19.2562 96.7534 19.2009 97.1067 19.0442 97.4092L19.0419 97.4115C18.9659 97.4115 18.8921 97.4115 18.8161 97.4115V97.4138Z" fill="#FDE591"/>
<path d="M23.6452 117.968C22.2537 116.767 21.4865 115.105 20.4843 113.625C19.1295 111.625 18.0075 109.48 16.9731 107.294C16.8441 107.023 16.8072 106.709 16.7266 106.418C17.761 107.568 18.2011 109.06 18.9176 110.388C19.3807 111.249 19.8553 112.417 20.4589 112.796C21.4703 113.428 21.3321 114.484 21.9518 115.215C22.5946 115.975 23.2513 116.864 23.6452 117.852C23.6591 117.885 23.6452 117.928 23.6452 117.968Z" fill="#FDEA6D"/>
<path d="M24.5852 119.339C24.3318 118.838 23.7005 118.6 23.6406 117.965C23.901 117.843 24.159 117.718 24.5852 117.515C24.2535 118.319 24.2466 118.884 25.5759 118.55C25.0667 118.954 24.8271 119.145 24.5852 119.337V119.339Z" fill="#FDEA6D"/>
<path d="M15.3465 105.481C15.3142 105.149 15.4455 104.863 15.6045 104.585C16.1597 104.643 16.2127 105.073 16.2749 105.495C15.9685 105.213 15.6621 105.066 15.3442 105.481H15.3465Z" fill="#F8D14B"/>
<path d="M104.294 17.3516C104.971 17.4877 105.649 17.4389 106.326 17.3535C108.547 18.0002 109.227 21.0437 108.151 22.2051C107.759 22.6276 107.353 23.1377 106.745 23.0547C106.123 22.9693 106.238 22.2975 106.116 21.8496C105.916 21.1224 105.552 20.5287 104.903 20.127C104.122 19.8637 103.365 19.8127 102.674 20.3691C101.596 21.0179 100.612 21.778 99.6975 22.6484C99.0641 23.2487 99.1793 23.6363 99.8381 24.0449C100.697 24.5783 101.32 25.2872 101.486 26.3262C101.469 27.0857 101.493 27.8478 101.472 28.6074C100.951 30.5954 99.7945 32.0345 97.804 32.6533C96.7073 32.9927 95.6769 32.8424 95.0364 31.7041C94.4604 30.3188 94.8244 28.8986 94.8889 27.4902V27.4873C94.67 26.516 94.2622 27.2843 94.0618 27.4482C92.2993 28.8705 91.1271 30.7251 90.2747 32.8008C90.2033 32.9761 90.1221 33.1466 90.0461 33.3174C89.1499 35.3077 89.4841 37.3957 90.9563 38.9727C91.235 39.3351 90.9196 39.7832 91.1223 40.1572C91.0348 40.3649 90.9771 40.596 90.8528 40.7783C90.0281 41.9949 89.3829 42.0155 88.4983 40.8242C88.1158 40.3093 87.6946 39.7917 87.6624 39.0967C87.3122 37.4505 87.5398 35.8137 87.7356 34.1768C89.1663 29.5636 91.6935 25.8458 96.1975 23.7285C96.8772 23.4099 97.1652 22.708 97.6145 22.1631C99.4185 19.9742 101.414 18.0442 104.294 17.3516ZM98.0413 26.5527C97.8546 26.3657 97.6748 26.1582 97.3752 26.3545L97.1721 26.6055L97.175 26.6084C96.8249 27.3125 96.6102 28.0326 96.9348 28.8105C97.3633 29.3601 97.5461 30.358 98.592 29.8662C99.3245 29.5221 99.4252 28.4344 98.8401 27.5225C98.6167 27.1716 98.3108 26.8736 98.0413 26.5527Z" fill="#AF66A8"/>
<path d="M97.1723 26.6058C97.0917 27.34 96.8429 28.0558 96.9327 28.8085C96.541 28.2243 96.6009 26.7997 97.0341 26.4326L97.1723 26.6058Z" fill="#A4689C"/>
<path d="M98.0386 26.5526C97.8175 26.4856 97.594 26.4209 97.3728 26.354C97.488 26.1046 97.6838 26.0423 97.9165 26.1508C98.0824 26.227 98.2621 26.3401 98.0386 26.5526Z" fill="#A4729F"/>
<path d="M10.059 108.716C10.8631 108.61 10.7456 109.231 10.7409 109.663C10.7248 110.907 11.1833 112.009 11.6694 113.11C11.4483 114.807 10.4875 116.209 9.83781 117.735C9.60512 118.192 9.47149 118.7 9.13742 119.106C8.81026 119.346 8.9508 119.709 8.90242 120.023C8.34027 120.325 8.08914 119.905 7.97394 119.52C7.50625 117.952 6.91414 116.382 7.50855 114.705C7.51777 114.56 7.52698 114.417 7.5362 114.271C8.44625 112.452 9.3609 110.635 10.0567 108.718L10.059 108.716Z" fill="#FEF5C2"/>
<path d="M7.50845 114.703C7.43933 116.278 7.82178 117.783 8.19962 119.291C8.3033 119.704 8.41389 120.018 8.90232 120.021C8.65349 120.526 7.92315 120.725 8.00148 121.438C7.8909 122.14 7.51996 122.637 6.80805 122.761C5.86114 122.925 5.25521 122.38 4.77139 121.648C4.45345 120.134 5.69757 119.081 5.92796 117.728C5.70217 117.139 6.08232 116.767 6.41178 116.379C6.99237 115.961 7.073 115.216 7.50845 114.703Z" fill="#FDE592"/>
<path d="M9.13501 119.104C9.25251 118.587 9.44143 118.109 9.8354 117.732C9.81467 118.298 9.68104 118.806 9.13501 119.104Z" fill="#FDE592"/>
<path d="M102.425 93.4839C102.14 93.4562 101.792 93.567 101.672 93.156L102.199 93.0244C102.381 93.126 102.428 93.2922 102.425 93.4839Z" fill="#C481C1"/>
<path d="M123.854 77.2752C123.854 76.4324 123.845 75.8298 123.856 75.2295C123.87 74.4952 123.877 74.4952 124.764 74.6799C123.435 75.1233 124.439 76.3262 123.854 77.2775V77.2752Z" fill="#FEEC64"/>
<path d="M125.25 78.5381H127.953C127.953 78.5727 127.953 78.6074 127.953 78.642H125.25C125.25 78.6074 125.25 78.5727 125.25 78.5381Z" fill="#FEEE60"/>
<path d="M130.708 74.8418V77.317C130.669 77.317 130.632 77.317 130.593 77.317V74.8487C130.632 74.8464 130.669 74.8441 130.708 74.8418Z" fill="#FDEE62"/>
<path d="M20.1962 95.1026C20.309 94.5831 20.4887 94.0983 20.8827 93.7173C20.9611 93.7173 21.0371 93.7173 21.1154 93.7196C21.1246 94.2922 21.8481 94.5046 21.8089 95.1003C21.2698 95.3081 20.733 94.5485 20.1938 95.1003L20.1962 95.1026Z" fill="#FDCF38"/>
<path d="M21.1592 81.9927C21.5739 83.1241 21.2536 84.2924 21.3412 85.4399C20.8896 84.3108 21.1592 83.1448 21.1592 81.9927Z" fill="#D87205"/>
<path d="M21.0808 93.2437C21.0808 92.7934 21.0808 92.3409 21.0808 91.8906C21.9494 92.3409 21.2743 92.7934 21.0808 93.2437Z" fill="#FBC921"/>
<path d="M134.911 59.5518C134.68 59.6257 134.429 59.9143 134.224 59.7134C133.971 59.464 134.441 59.3324 134.448 59.0923C134.602 59.2447 134.756 59.3994 134.911 59.5518Z" fill="#BB7BB5"/>
<path d="M74.9581 52.3226H72.8684L72.873 52.1748H74.9811C74.9742 52.2233 74.965 52.2741 74.9581 52.3226Z" fill="#01B6EE"/>
<path d="M44.8642 44.105C45.4978 44.225 45.7627 44.9962 46.4562 45.0101C46.3064 45.3218 46.076 45.5504 45.765 45.7028C45.5001 45.1509 44.3757 45.084 44.8642 44.105Z" fill="#B26FAC"/>
<path d="M23.6497 91.4058C23.5736 91.4058 23.4976 91.4058 23.4239 91.3965C23.3617 90.2005 22.8779 89.143 22.3019 88.1294C22.0991 87.7715 22.007 87.4506 22.1084 86.8018C22.6083 88.8336 23.4308 87.3097 24.1128 87.2566C24.3731 88.3141 23.9837 89.464 24.5735 90.4753C24.2717 90.6161 24.1128 90.8516 24.1151 91.191C23.9215 91.1795 23.751 91.2187 23.6497 91.4081V91.4058Z" fill="#E66A20"/>
<path d="M76.17 67.4023C75.4442 67.2084 74.9835 66.7489 74.7922 66.0216C75.5871 66.3518 75.7161 65.7515 75.8866 64.9087C76.1884 65.7284 76.428 66.3033 77.3058 66.0886C76.7989 66.548 75.9165 66.5042 76.1677 67.4023H76.17Z" fill="#7CC99B"/>
<path d="M74.3269 67.3999C74.2508 67.3237 74.1771 67.2498 74.1011 67.1737C74.1011 66.982 74.1402 66.8088 74.3246 66.7026C74.4236 66.7534 74.5296 66.7973 74.6218 66.8573C74.8591 67.0097 75.3037 67.1113 75.1148 67.4646C74.9259 67.8178 74.5918 67.4807 74.3246 67.3976L74.3269 67.3999Z" fill="#79CB9B"/>
<path d="M13.7223 98.5173C13.7937 98.3718 13.8651 98.2241 13.9365 98.0786C14.0241 98.2333 14.16 98.3788 14.1877 98.5427C14.2222 98.7436 14.2729 99.0876 14.0172 99.1061C13.6209 99.1361 13.8098 98.7251 13.72 98.5173H13.7223Z" fill="#FAC301"/>
<path d="M10.7523 107.107C10.674 107.331 10.5934 107.555 10.515 107.777C10.2593 107.613 10.2823 107.359 10.2962 107.107H10.7547H10.7523Z" fill="#F6C81C"/>
<path d="M11.2246 105.95C11.2592 106.361 11.1233 106.691 10.7731 106.924C10.7685 106.527 10.9067 106.197 11.2246 105.95Z" fill="#F6C81C"/>
<path d="M17.1989 93.2554C17.1667 93.6225 17.0376 93.9411 16.7427 94.1766C16.7174 93.7818 16.7842 93.4332 17.1989 93.2554Z" fill="#FDE591"/>
<path d="M6.41181 116.379C6.25054 116.829 6.08927 117.277 5.92799 117.728C5.68147 117.831 5.44417 117.915 5.45338 117.494C5.86118 117.123 5.83353 116.532 6.14686 116.111C6.23441 116.201 6.32427 116.289 6.41181 116.379Z" fill="#F9C503"/>
<path d="M101.52 66.4097C101.278 67.0331 101.015 67.2686 100.559 67.4464C100.598 66.8207 100.96 66.6937 101.52 66.4097Z" fill="#69C290"/>
<path d="M99.0894 94.9549C99.1101 94.5808 99.4073 94.4561 99.6699 94.2876C99.9487 94.5439 99.7091 94.6894 99.5755 94.8302C99.458 94.9549 99.3267 95.1234 99.0894 94.9549Z" fill="#B171AB"/>
<path d="M74.5571 68.326C74.5917 68.0951 74.6447 67.8665 74.9511 67.9173C75.0225 67.9289 75.1423 68.0812 75.1262 68.1251C75.0248 68.3976 74.7645 68.2983 74.5594 68.3283L74.5571 68.326Z" fill="#5DBE88"/>
<path d="M32.4876 109.187C32.4416 109.803 33.1811 109.935 32.9692 110.411C32.7987 110.794 32.1858 110.535 32.2711 110.101C32.3194 109.847 32.0361 109.598 32.4899 109.185L32.4876 109.187Z" fill="#FECE33"/>
<path d="M20.4288 96.9497C20.2238 96.9243 19.9657 97.0212 19.8621 96.7511C19.8459 96.7072 19.9657 96.5548 20.0349 96.5433C20.339 96.4948 20.3943 96.7188 20.4242 96.952L20.4265 96.9497H20.4288Z" fill="#FEC40A"/>
<path d="M19.0442 97.4092C19.0212 97.019 19.0903 96.6749 19.4912 96.4902C19.4704 96.8597 19.3414 97.176 19.0442 97.4092Z" fill="#FEEB76"/>
<path d="M18.2078 96.7075C19.0464 98.2568 17.6963 98.9772 17.4129 100.092C17.095 99.7507 17.1203 99.1758 16.5582 99.3651C16.2518 99.469 15.9707 99.4298 15.9361 99.1042C15.9016 98.774 16.2264 98.55 16.4799 98.43C17.7954 97.7996 17.8023 97.8135 18.2078 96.7098V96.7075Z" fill="#FEF6CB"/>
</g>
<defs>
<clipPath id="clip0_52_4218">
<rect width="139" height="129" fill="white" transform="translate(0.5)"/>
</clipPath>
</defs>
</svg>
