<svg width="65" height="64" viewBox="0 0 65 64" fill="none" xmlns="http://www.w3.org/2000/svg">
<path d="M17.6325 0C18.0941 0 18.5258 0.227751 18.7868 0.608398L39.7702 31.208C40.0974 31.6851 40.0974 32.3149 39.7702 32.792L18.7868 63.3916C18.5258 63.7722 18.0941 64 17.6325 64H5.40206C4.29231 64 3.62401 62.7703 4.22725 61.8389L23.0583 32.7607C23.358 32.2978 23.358 31.7022 23.0583 31.2393L4.22725 2.16113C3.62401 1.22965 4.2923 0 5.40206 0H17.6325ZM42.5271 38.1914C43.0828 37.4011 44.2532 37.3981 44.8132 38.1855L61.5974 61.7891C62.2563 62.716 61.594 64 60.4567 64H47.4548C46.9911 64 46.5572 63.7703 46.2966 63.3867L36.2849 48.6475C35.9581 48.1661 35.9632 47.5328 36.2976 47.0566L42.5271 38.1914ZM60.4567 0C61.594 2.72817e-05 62.2563 1.28405 61.5974 2.21094L44.8132 25.8145C44.2532 26.6019 43.0828 26.5989 42.5271 25.8086L36.2976 16.9434C35.9632 16.4672 35.9581 15.8339 36.2849 15.3525L46.2966 0.613281C46.5572 0.229707 46.9911 0 47.4548 0H60.4567Z" fill="#1B1B1B"/>
</svg>
