<svg width="128" height="128" viewBox="0 0 128 128" fill="none" xmlns="http://www.w3.org/2000/svg">
<path d="M22 52.4C22 41.759 22 36.4385 24.0709 32.3742C25.8925 28.7991 28.7991 25.8925 32.3742 24.0709C36.4385 22 41.759 22 52.4 22H75.6C86.241 22 91.5615 22 95.6258 24.0709C99.2009 25.8925 102.108 28.7991 103.929 32.3742C106 36.4385 106 41.759 106 52.4V75.6C106 86.241 106 91.5615 103.929 95.6258C102.108 99.2009 99.2009 102.108 95.6258 103.929C91.5615 106 86.241 106 75.6 106H52.4C41.759 106 36.4385 106 32.3742 103.929C28.7991 102.108 25.8925 99.2009 24.0709 95.6258C22 91.5615 22 86.241 22 75.6V52.4Z" fill="#001E36"/>
<path d="M40 83.5487V46.6103C40 46.359 40.105 46.2154 40.35 46.2154C43.9669 46.2154 47.5821 46 51.2 46C57.0705 46 63.4269 48.0073 65.655 54.1487C66.18 55.6564 66.46 57.2 66.46 58.8154C66.46 61.9026 65.76 64.4513 64.36 66.4615C60.4492 72.077 53.671 71.9898 47.595 71.9898V83.5128C47.6425 83.854 47.3518 84.0154 47.07 84.0154H40.42C40.14 84.0154 40 83.8718 40 83.5487ZM47.63 53.1436V65.2051C50.0392 65.3816 52.5602 65.4008 54.875 64.6308C57.4305 63.8936 58.83 61.6815 58.83 59.0308C58.901 56.7721 57.6702 54.6049 55.575 53.7897C53.2881 52.8388 50.0986 52.7819 47.63 53.1436Z" fill="#31A8FF"/>
<path d="M88.29 62.8221C87.231 62.264 86.1031 61.8557 84.9371 61.6084C83.4388 61.2558 77.5293 60.0211 77.5271 63.1111C77.5796 64.8362 80.3179 65.6813 81.5279 66.1742C85.7754 67.6325 90.5821 70.2391 90.4876 75.4792C90.6175 82.0025 84.2972 84.6102 78.8795 84.6108C76.059 84.64 73.1208 84.2031 70.5396 82.9925C70.2932 82.862 70.1346 82.5831 70.1452 82.2989V76.0571C70.1174 75.8068 70.386 75.5881 70.596 75.7682C73.1251 77.2976 76.1228 78.0402 79.0485 78.0799C80.34 78.0799 82.8998 77.9547 82.8804 76.0571C82.8804 74.2361 79.8183 73.3988 78.5977 72.9362C76.8283 72.3045 75.1507 71.4296 73.6107 70.3354C71.4586 68.8003 70.1085 66.339 70.1452 63.6312C70.1326 57.4891 75.9504 54.7321 81.1899 54.7308C83.6392 54.7106 86.2695 54.892 88.5496 55.8867C88.8774 55.9832 88.9454 56.3286 88.944 56.638V62.4753C88.9648 62.8377 88.5624 62.9611 88.29 62.8221Z" fill="#31A8FF"/>
</svg>
