<svg width="128" height="128" viewBox="0 0 128 128" fill="none" xmlns="http://www.w3.org/2000/svg">
<path d="M22 52.4C22 41.759 22 36.4385 24.0709 32.3742C25.8925 28.7991 28.7991 25.8925 32.3742 24.0709C36.4385 22 41.759 22 52.4 22H75.6C86.241 22 91.5615 22 95.6258 24.0709C99.2009 25.8925 102.108 28.7991 103.929 32.3742C106 36.4385 106 41.759 106 52.4V75.6C106 86.241 106 91.5615 103.929 95.6258C102.108 99.2009 99.2009 102.108 95.6258 103.929C91.5615 106 86.241 106 75.6 106H52.4C41.759 106 36.4385 106 32.3742 103.929C28.7991 102.108 25.8925 99.2009 24.0709 95.6258C22 91.5615 22 86.241 22 75.6V52.4Z" fill="#470137"/>
<path d="M65.9395 46.7014L55.4583 64.4445L66.6719 83.2856C66.905 83.7128 66.6719 83.8071 66.3339 83.8071H58.3323C57.7686 83.8071 57.3742 83.7868 57.1488 83.4012C56.3968 81.8986 55.6455 80.4055 54.8948 78.9221C54.1428 77.4392 53.3446 75.9269 52.5 74.3852C51.6547 72.8446 50.8189 71.2842 49.9924 69.7038C49.2405 71.2453 48.4045 72.7865 47.5974 74.3274C46.7893 75.8689 45.991 77.4005 45.2026 78.9221C44.4138 80.4446 43.6061 81.9569 42.7796 83.459C42.6291 83.8058 42.3657 83.8415 41.9906 83.8415H34.2708C33.9675 83.8415 33.9309 83.6135 34.1018 83.3434L44.9772 65.0224L34.3834 46.6436C34.191 46.3814 34.3566 46.1019 34.6652 46.1234H42.6105C42.9545 46.104 43.2585 46.2338 43.4557 46.5281C44.132 48.0695 44.8833 49.6107 45.7097 51.1516C46.5356 52.6931 47.3715 54.2151 48.2173 55.7174C49.0626 57.2201 49.8985 58.742 50.6123 60.2832C51.3632 58.7038 52.1239 57.1626 52.8944 55.6597C53.664 54.157 54.4529 52.6447 55.261 51.1227C56.0685 49.6011 56.8481 48.0888 57.5996 46.5858C57.6995 46.2561 57.9381 46.0891 58.2758 46.1234H65.6576C65.9395 46.1234 66.056 46.5082 65.9395 46.7014Z" fill="#FF61F6"/>
<path d="M82.1114 84.5575C77.1418 84.6351 71.9365 82.589 69.32 78.0556C68.0424 75.8792 67.4037 73.1532 67.4041 69.8776C67.3829 67.2251 68.0437 64.6136 69.32 62.3065C72.613 56.42 79.2471 54.2144 85.5487 54.7932V43.4076C85.5487 43.1385 85.6615 43.003 85.8869 43.003H92.9869C93.1809 42.9746 93.3527 43.1507 93.3251 43.3497V77.5065C93.3251 78.9158 93.4647 80.3201 93.5505 81.7255C93.5643 81.9656 93.4254 82.2031 93.2123 82.3035C89.7042 83.8041 85.9085 84.5401 82.1114 84.5575ZM85.5487 77.3909V61.613C80.402 60.183 75.4051 64.1032 75.4057 69.5308C75.2835 75.1423 80.1207 79.0192 85.5487 77.3909Z" fill="#FF61F6"/>
</svg>
