<svg width="128" height="128" viewBox="0 0 128 128" fill="none" xmlns="http://www.w3.org/2000/svg">
<path d="M22 52.4C22 41.759 22 36.4385 24.0709 32.3742C25.8925 28.7991 28.7991 25.8925 32.3742 24.0709C36.4385 22 41.759 22 52.4 22H75.6C86.241 22 91.5615 22 95.6258 24.0709C99.2009 25.8925 102.108 28.7991 103.929 32.3742C106 36.4385 106 41.759 106 52.4V75.6C106 86.241 106 91.5615 103.929 95.6258C102.108 99.2009 99.2009 102.108 95.6258 103.929C91.5615 106 86.241 106 75.6 106H52.4C41.759 106 36.4385 106 32.3742 103.929C28.7991 102.108 25.8925 99.2009 24.0709 95.6258C22 91.5615 22 86.241 22 75.6V52.4Z" fill="#330000"/>
<path d="M62.705 74.7888H49.6881L47.0397 83.2269C46.9662 83.5404 46.6775 83.7624 46.3635 83.747H39.7705C39.3946 83.747 39.2631 83.5351 39.3761 83.1113L50.646 49.8214C50.7588 49.4747 50.8715 49.0798 50.9842 48.6366C51.1316 47.8655 51.2071 47.0818 51.2096 46.296C51.1773 46.0639 51.3814 45.8588 51.6041 45.8914H60.5636C60.8261 45.8914 60.9764 45.9877 61.0144 46.1804L73.806 83.169C73.9186 83.5546 73.8059 83.7473 73.4678 83.747H66.1422C65.8853 83.7762 65.64 83.6001 65.5788 83.3425L62.705 74.7888ZM51.7167 67.5067H60.62C59.1572 62.5081 57.5064 57.5753 56.1684 52.5378C54.7249 57.5838 53.1499 62.6094 51.7167 67.5067Z" fill="#FF9A00"/>
<path d="M81.4125 52.0175C80.8378 52.0411 80.2646 51.9401 79.7306 51.721C79.1965 51.5019 78.7135 51.1697 78.3133 50.746C77.9141 50.3039 77.604 49.7853 77.4009 49.22C77.1978 48.6546 77.1057 48.0537 77.1298 47.4517C77.1093 46.8556 77.2116 46.2619 77.4301 45.7091C77.6486 45.1564 77.9783 44.6572 78.3977 44.244C78.813 43.8352 79.3033 43.5148 79.8401 43.3016C80.3769 43.0883 80.9496 42.9863 81.5251 43.0015C82.8776 43.0015 83.9389 43.4157 84.709 44.244C85.0977 44.6745 85.3998 45.1795 85.598 45.7299C85.7962 46.2803 85.8866 46.8654 85.8641 47.4517C85.8876 48.056 85.7925 48.6591 85.5844 49.225C85.3763 49.7909 85.0594 50.3081 84.6526 50.746C84.2274 51.1759 83.7199 51.5108 83.1623 51.7296C82.6047 51.9485 82.0089 52.0465 81.4125 52.0175ZM77.5242 83.1688V55.5429C77.5242 55.1962 77.6739 55.0227 77.9751 55.0227H84.9062C85.2064 55.0227 85.3567 55.1961 85.357 55.5429V83.1688C85.357 83.5545 85.2067 83.7471 84.9062 83.7468H78.0315C77.6934 83.7468 77.5243 83.5542 77.5242 83.1688Z" fill="#FF9A00"/>
</svg>
