<svg width="128" height="128" viewBox="0 0 128 128" fill="none" xmlns="http://www.w3.org/2000/svg">
<path fill-rule="evenodd" clip-rule="evenodd" d="M64 64C64 57.3726 69.3726 52 76 52C82.6274 52 88 57.3726 88 64C88 70.6274 82.6274 76 76 76C69.3726 76 64 70.6274 64 64Z" fill="#1ABCFE"/>
<path fill-rule="evenodd" clip-rule="evenodd" d="M40 88C40 81.3726 45.3726 76 52 76H64V88C64 94.6274 58.6274 100 52 100C45.3726 100 40 94.6274 40 88Z" fill="#0ACF83"/>
<path fill-rule="evenodd" clip-rule="evenodd" d="M64 28V52H76C82.6274 52 88 46.6274 88 40C88 33.3726 82.6274 28 76 28H64Z" fill="#FF7262"/>
<path fill-rule="evenodd" clip-rule="evenodd" d="M40 40C40 46.6274 45.3726 52 52 52H64V28H52C45.3726 28 40 33.3726 40 40Z" fill="#F24E1E"/>
<path fill-rule="evenodd" clip-rule="evenodd" d="M40 64C40 70.6274 45.3726 76 52 76H64V52H52C45.3726 52 40 57.3726 40 64Z" fill="#A259FF"/>
</svg>
